<?xml version="1.0" standalone="no"?>
<!DOCTYPE svg PUBLIC "-//W3C//DTD SVG 20010904//EN"
 "http://www.w3.org/TR/2001/REC-SVG-20010904/DTD/svg10.dtd">
<svg version="1.0" xmlns="http://www.w3.org/2000/svg"
 width="150.000000pt" height="50.000000pt" viewBox="0 0 150.000000 674.000000"
 preserveAspectRatio="xMidYMid meet">

<g transform="translate(0.000000,674.000000) scale(0.100000,-0.100000)"
fill="#000000" stroke="none">
<path d="M2245 6190 c-286 -21 -528 -65 -733 -134 -199 -67 -259 -92 -382
-160 -322 -176 -516 -375 -602 -616 -29 -81 -36 -264 -14 -364 24 -106 85
-224 157 -300 115 -123 325 -248 528 -316 88 -29 359 -102 426 -114 259 -50
534 -77 785 -77 l185 0 60 -59 c155 -150 482 -315 586 -295 37 7 45 22 30 58
-28 66 -71 253 -69 297 l3 44 55 17 c30 9 89 27 130 39 201 59 660 264 759
338 84 63 178 170 218 248 60 116 77 181 77 299 -1 214 -100 412 -287 578 -79
70 -151 123 -212 157 -481 271 -1104 403 -1700 360z m400 -70 c213 -14 353
-35 539 -81 528 -133 869 -317 1071 -579 81 -105 135 -251 135 -364 0 -174
-117 -353 -312 -480 -230 -149 -617 -326 -847 -386 -41 -11 -76 -22 -79 -25
-3 -2 -4 -40 -4 -83 2 -82 30 -209 62 -274 17 -36 17 -38 1 -38 -80 0 -379
149 -516 257 l-60 47 33 8 c17 5 32 12 32 16 0 4 -87 7 -193 8 -350 2 -754 60
-1107 160 -365 103 -608 244 -729 424 -75 111 -96 186 -96 340 0 105 4 137 24
198 30 93 85 177 175 271 350 363 927 568 1661 589 33 1 128 -3 210 -8z"/>
<path d="M2270 5775 c-30 -9 -68 -24 -85 -34 -29 -17 -30 -20 -30 -83 0 -37 3
-70 7 -74 4 -3 31 4 60 17 40 18 72 23 130 24 86 0 117 -15 153 -76 28 -47 28
-151 0 -197 -24 -41 -81 -72 -130 -72 -72 0 -75 -6 -75 -145 0 -143 1 -145 90
-145 81 0 90 9 90 88 0 37 4 73 8 79 5 7 32 20 61 29 114 34 186 146 183 289
-2 139 -74 249 -190 290 -67 24 -204 29 -272 10z"/>
<path d="M2333 4900 c-32 -13 -43 -41 -43 -108 0 -88 19 -107 104 -107 91 0
109 18 107 111 -1 87 -17 106 -93 111 -29 1 -63 -1 -75 -7z"/>
<path d="M7575 6185 c-130 -35 -282 -106 -512 -238 l-131 -76 -49 15 c-164 50
-476 62 -684 25 -124 -22 -309 -79 -427 -132 l-72 -33 -58 28 c-212 106 -441
173 -617 183 -168 8 -223 -14 -272 -110 -103 -204 -41 -632 148 -1013 l70
-141 -20 -104 c-55 -286 -80 -646 -62 -890 19 -267 56 -403 143 -538 59 -90
100 -134 193 -204 44 -33 79 -64 77 -69 -1 -5 2 -7 8 -3 6 4 39 -10 74 -29 35
-20 69 -36 74 -36 5 0 27 -7 48 -16 l39 -16 -30 -24 c-17 -13 -26 -24 -21 -24
5 0 0 -8 -10 -17 -11 -10 -30 -35 -44 -55 -13 -20 -28 -34 -32 -32 -4 3 -8 -1
-8 -8 0 -21 -87 -158 -94 -150 -4 4 -7 3 -5 -3 4 -17 -46 -117 -54 -108 -5 4
-5 0 -1 -10 3 -9 2 -23 -3 -30 -5 -6 -17 -34 -27 -62 -10 -27 -20 -57 -23 -65
-27 -73 -11 -370 20 -370 5 0 7 -9 4 -20 -3 -11 -2 -18 3 -15 14 8 21 -28 8
-37 -10 -7 -10 -9 2 -5 8 2 30 -12 50 -31 19 -19 52 -43 73 -53 l38 -20 -29
-27 c-16 -15 -32 -38 -36 -50 -4 -12 -12 -19 -18 -16 -7 4 -8 2 -4 -5 4 -6 0
-23 -8 -36 -9 -14 -14 -25 -10 -25 4 0 1 -7 -6 -15 -7 -8 -9 -15 -5 -15 4 0 2
-6 -4 -14 -6 -7 -9 -20 -7 -27 3 -8 1 -30 -4 -49 -9 -33 -9 -33 -4 10 3 24 2
41 -2 38 -10 -11 -22 -87 -14 -90 4 -2 11 -14 15 -27 5 -16 4 -21 -4 -17 -6 4
-11 4 -11 0 0 -18 43 -192 57 -228 7 -21 12 -41 9 -43 -3 -3 -8 6 -11 20 -4
16 -12 24 -20 21 -10 -4 -12 1 -8 15 3 13 1 21 -7 21 -9 0 -10 3 -2 13 7 9 8
23 3 43 -9 29 -9 28 -11 -11 -1 -22 -1 -58 0 -79 2 -37 1 -39 -16 -25 -16 13
-17 12 -12 -14 4 -19 2 -25 -6 -20 -6 5 -48 8 -93 8 -46 0 -83 3 -83 8 0 13
-31 8 -47 -8 -22 -23 -38 -13 -38 23 0 18 -3 32 -7 32 -11 0 -21 -47 -15 -64
3 -8 1 -17 -6 -20 -7 -2 11 -5 40 -5 32 -1 53 4 56 12 4 9 8 9 15 -2 7 -10 14
-10 30 -2 27 15 55 14 46 -1 -5 -8 0 -9 17 -4 13 3 38 9 54 12 23 4 27 3 15
-5 -12 -9 -10 -11 13 -11 16 0 27 5 27 14 0 8 8 24 19 37 l18 23 7 -22 c4 -12
1 -31 -6 -44 -7 -13 -11 -27 -10 -31 1 -4 -3 -17 -9 -29 l-11 -21 -13 23 c-14
26 -45 36 -45 14 0 -8 5 -13 11 -11 12 2 15 -11 22 -75 2 -21 7 -41 10 -45 4
-3 7 -18 7 -32 -1 -24 -1 -25 -15 -7 -7 10 -18 15 -24 12 -5 -4 -12 -2 -16 4
-3 5 -10 10 -16 10 -14 0 -11 -28 4 -33 6 -2 8 -8 4 -13 -10 -11 -42 9 -42 27
0 20 26 49 44 49 11 0 12 3 5 10 -14 14 -64 -7 -64 -27 0 -7 -7 -13 -15 -13
-9 0 -18 -7 -21 -15 -7 -18 -44 -20 -45 -2 0 6 -5 2 -11 -10 -14 -29 -42 -29
-56 -1 l-11 23 -7 -22 c-3 -13 -14 -23 -23 -23 -9 0 -22 -14 -30 -31 -7 -16
-16 -28 -18 -25 -7 7 18 69 31 78 7 5 2 14 -12 24 -14 10 -21 22 -18 31 5 11
2 13 -11 8 -36 -15 -63 -17 -63 -5 0 9 -4 9 -12 2 -7 -6 -26 -12 -43 -14 -36
-4 -31 -23 7 -23 15 -1 30 -4 34 -8 4 -4 -9 -7 -30 -7 -21 0 -44 6 -52 14 -7
8 -19 17 -26 19 -9 4 -5 12 12 28 21 18 25 19 28 5 4 -21 22 -21 22 0 0 11 5
14 16 10 9 -3 31 1 50 10 26 13 38 14 47 5 6 -6 19 -11 29 -11 10 0 18 -4 18
-10 0 -10 36 -50 45 -50 3 0 5 12 4 28 0 15 -3 21 -6 15 -9 -23 -23 -14 -23
15 0 26 -3 28 -30 24 -18 -2 -40 2 -55 12 -31 20 -35 20 -35 -1 0 -15 -4 -13
-19 7 l-19 25 -7 -28 c-4 -15 -11 -24 -16 -22 -4 3 -17 0 -28 -7 -11 -7 -24
-9 -28 -4 -10 9 26 38 38 30 5 -3 9 2 9 10 0 17 -12 21 -24 9 -4 -4 -15 -8
-24 -8 -12 0 -18 -10 -20 -38 -3 -37 -22 -53 -22 -19 -1 16 -1 16 -14 0 -7
-10 -18 -18 -25 -18 -6 0 -11 -4 -11 -10 0 -5 14 -10 30 -10 20 0 30 -5 30
-15 0 -24 -26 -29 -74 -14 -37 11 -45 18 -51 43 -6 29 -7 30 -18 11 -26 -44
-52 -65 -81 -65 -22 0 -27 3 -19 11 6 6 8 20 5 31 -4 17 -10 19 -41 14 -20 -3
-48 -8 -64 -9 -39 -5 -44 -15 -11 -22 50 -11 54 -14 54 -35 0 -17 -6 -20 -42
-19 -32 0 -38 2 -23 8 17 7 15 9 -15 16 -19 5 -40 8 -47 7 -6 -2 -14 2 -18 8
-11 18 -35 11 -45 -12 -8 -21 -9 -20 -9 9 -1 17 -7 34 -13 36 -10 4 -9 8 2 16
13 10 13 11 0 11 -12 0 -12 2 -2 9 11 7 10 9 -2 14 -20 8 -36 -27 -33 -69 1
-15 -4 -29 -10 -31 -8 -3 -13 4 -13 16 0 15 -6 21 -21 21 -16 0 -19 -4 -14
-22 7 -20 5 -21 -41 -14 -26 3 -55 13 -64 21 -11 10 -34 15 -63 14 -54 -3 -54
-4 -1 -23 l39 -15 -66 0 c-46 -1 -81 5 -110 18 -45 21 -71 16 -96 -18 -10 -14
-13 -13 -30 7 -12 15 -33 25 -61 29 -50 7 -56 23 -8 23 45 0 66 9 66 27 0 20
-45 63 -66 63 -16 0 -16 -2 2 -15 18 -14 17 -15 -16 -13 -22 2 -34 8 -32 16 1
6 -7 12 -19 12 -11 0 -17 -5 -14 -10 3 -6 -1 -13 -9 -16 -30 -12 -4 -24 50
-24 37 0 61 -5 71 -15 14 -14 8 -15 -53 -10 -38 4 -74 8 -80 10 -16 5 -30 -7
-38 -32 -7 -22 11 -43 23 -26 11 17 41 23 41 8 0 -21 -17 -28 -82 -29 -55 -1
-62 1 -80 26 -21 31 -38 36 -38 13 0 -11 -11 -15 -40 -15 -39 0 -40 1 -40 36
0 21 -4 33 -10 29 -6 -4 -8 -11 -5 -16 4 -5 -1 -12 -10 -15 -13 -6 -14 -8 -3
-15 11 -7 10 -11 -2 -19 -8 -5 -22 -9 -30 -9 -31 2 -40 -1 -40 -16 0 -8 -7
-15 -15 -15 -20 0 -19 17 1 28 10 6 14 20 12 43 -3 34 -23 44 -23 11 0 -50
-57 -85 -68 -42 -3 11 -12 20 -21 20 -9 0 -16 4 -16 9 0 10 -34 5 -67 -11 -11
-6 -29 -26 -39 -44 -20 -36 -43 -42 -115 -27 -28 5 -30 7 -14 14 11 4 31 8 45
8 20 1 22 -1 10 -9 -13 -8 -13 -10 2 -10 9 0 19 4 23 10 3 5 12 7 20 3 12 -4
15 4 15 36 0 41 -14 56 -22 23 -6 -23 -47 -26 -70 -5 -15 13 -23 14 -44 5 -14
-7 -23 -8 -20 -3 7 10 -17 21 -42 21 -15 -1 -14 -3 2 -15 17 -13 18 -18 6 -42
-10 -21 -14 -24 -17 -12 -2 10 -13 19 -24 22 -11 3 -23 15 -26 26 -4 17 -13
21 -45 21 -27 0 -38 -4 -35 -12 2 -7 14 -13 26 -12 14 0 21 -5 21 -18 0 -19
-15 -24 -25 -8 -4 7 -13 6 -27 -1 -20 -11 -37 0 -38 24 0 17 -20 5 -20 -13 0
-24 -9 -26 -25 -4 -8 11 -29 17 -66 19 -30 1 -62 5 -71 10 -14 5 -18 2 -18
-12 0 -11 -8 -27 -18 -36 -21 -19 -42 -23 -24 -5 7 7 12 21 12 32 0 18 -1 18
-18 3 -26 -24 -51 -22 -45 3 3 11 -1 40 -8 65 -10 34 -18 45 -33 45 -18 0 -18
-1 -3 -13 20 -15 34 -67 17 -67 -8 0 -10 -13 -6 -43 l7 -42 -21 38 c-11 21
-18 42 -15 47 3 5 -1 7 -9 4 -8 -3 -16 -15 -18 -27 -2 -15 -9 -21 -20 -19 -11
2 -18 -3 -18 -13 0 -8 -4 -15 -10 -15 -5 0 -10 7 -10 15 0 8 5 15 10 15 6 0
10 9 10 19 0 11 6 21 13 24 6 2 -3 7 -22 12 -27 6 -37 4 -47 -9 -6 -9 -18 -15
-25 -14 -9 2 -15 -8 -17 -27 -5 -39 -22 -58 -22 -24 0 25 -1 26 -82 27 -61 1
-86 6 -94 17 -15 20 -64 20 -64 -1 0 -11 6 -14 20 -9 20 6 28 -9 10 -20 -5 -3
-10 -15 -10 -26 0 -38 -18 -18 -26 29 -5 32 -9 40 -12 24 -2 -13 -10 -26 -18
-29 -8 -3 -14 -11 -14 -19 0 -18 -19 -18 -26 0 -4 11 -12 13 -31 5 -36 -14
-51 -11 -70 11 -21 24 -31 25 -55 3 -13 -11 -18 -12 -18 -3 0 10 -3 10 -15 0
-8 -7 -25 -10 -37 -7 -11 3 -28 2 -37 -2 -20 -11 -196 -21 -184 -12 4 4 28 14
53 22 l45 14 -48 3 c-27 2 -54 -2 -61 -7 -9 -7 -29 -8 -62 -2 -27 5 -51 6 -54
2 -11 -16 -40 -19 -54 -6 -21 21 -45 19 -101 -9 -35 -18 -53 -22 -66 -16 -12
7 -19 6 -22 -3 -3 -6 -6 -2 -6 11 -1 24 -21 32 -21 8 0 -8 -5 -18 -12 -22 -8
-5 -9 5 -5 34 4 32 2 42 -9 42 -10 0 -14 12 -14 39 0 22 -4 43 -10 46 -6 3 -7
-1 -4 -9 3 -9 -2 -23 -11 -33 -14 -14 -15 -18 -4 -22 21 -6 29 -23 28 -61 0
-19 -3 -30 -5 -24 -3 7 -15 9 -26 6 -17 -4 -20 -2 -15 11 4 10 10 24 13 32 5
11 -1 15 -20 15 -14 0 -26 -5 -26 -10 0 -14 -68 -45 -77 -35 -5 4 -2 10 5 12
17 6 15 23 -3 23 -9 0 -18 -7 -21 -15 -7 -18 -35 -20 -52 -3 -20 20 -14 28 22
28 30 0 34 4 40 31 12 62 3 63 -56 6 -35 -33 -44 -37 -71 -31 -18 3 -35 11
-38 16 -4 7 -13 7 -24 1 -15 -9 -12 -11 19 -17 38 -7 43 -15 24 -34 -7 -7 -17
-8 -29 -1 -25 13 -69 -9 -69 -35 -1 -19 -2 -20 -14 -4 -9 12 -16 14 -23 7 -6
-6 -16 -8 -23 -4 -14 8 -34 55 -31 72 4 24 -44 14 -55 -12 -11 -22 -9 -25 17
-34 35 -12 41 -42 7 -34 -13 3 -29 10 -36 16 -7 5 -35 7 -66 3 -41 -4 -57 -2
-66 9 -7 8 -16 15 -21 15 -5 0 -9 -175 -9 -395 l0 -395 4785 0 4785 0 0 390
c-1 270 -4 389 -11 384 -6 -3 -9 -15 -6 -25 3 -10 1 -22 -4 -25 -5 -3 -9 0 -9
6 0 7 -8 9 -20 5 -22 -7 -60 2 -60 14 0 4 18 18 40 31 22 14 40 28 40 33 0 14
-77 7 -90 -8 -7 -9 -29 -15 -51 -15 -44 0 -50 -11 -16 -28 22 -11 22 -11 0
-11 -14 -1 -20 -7 -18 -18 1 -10 0 -12 -2 -6 -3 7 -8 13 -13 13 -4 0 -11 11
-14 24 -11 43 -86 38 -86 -6 0 -10 -4 -18 -10 -18 -5 0 -7 13 -3 30 4 24 3 29
-9 25 -8 -3 -21 -17 -28 -31 -8 -14 -19 -23 -26 -20 -7 3 -15 -2 -18 -11 -8
-20 21 -66 36 -57 7 4 8 3 4 -4 -4 -6 -14 -8 -23 -5 -12 5 -14 3 -8 -8 7 -11
6 -12 -7 -2 -8 7 -17 11 -20 8 -2 -3 -5 2 -5 10 0 11 4 12 14 4 16 -14 17 -5
2 23 -11 21 -12 21 -25 -3 -7 -13 -13 -18 -14 -11 0 7 -5 10 -10 7 -8 -5 -7
-12 2 -23 11 -13 10 -15 -4 -9 -10 3 -18 2 -18 -4 0 -6 -5 -7 -11 -3 -8 4 -7
9 2 15 8 5 10 9 6 9 -5 0 -1 7 7 16 9 8 20 13 26 9 6 -4 7 1 3 11 -5 13 -3 15
7 9 8 -5 11 -3 8 6 -3 8 -11 13 -17 11 -7 -1 -4 9 6 25 24 39 26 41 18 14 -5
-15 -3 -21 3 -17 6 3 13 0 15 -6 3 -7 6 -3 6 10 1 14 5 20 12 17 6 -4 8 -14 4
-24 -5 -12 -3 -13 5 -5 9 9 9 18 -1 35 -16 30 -20 51 -8 43 5 -3 7 -10 4 -15
-4 -5 3 -9 15 -9 11 0 24 8 27 18 4 9 11 20 17 24 6 4 7 10 3 14 -4 4 -14 -1
-23 -12 -15 -19 -15 -18 -9 2 3 12 0 33 -6 48 -23 51 26 99 58 57 9 -13 14
-14 24 -4 11 11 10 13 -5 13 -9 0 -14 4 -11 10 3 5 -1 10 -9 10 -10 0 -16 8
-15 23 0 21 1 21 9 2 8 -18 9 -17 9 8 1 15 7 27 14 27 8 0 13 22 14 70 1 39
-2 70 -7 70 -10 0 -18 -100 -7 -107 15 -9 6 -22 -13 -18 -15 3 -24 -3 -30 -18
-6 -16 -9 -18 -9 -5 -1 9 3 19 9 23 5 3 6 13 3 22 -4 11 -3 14 5 9 8 -5 10 2
5 25 -3 18 -2 30 3 27 5 -4 8 27 7 70 -2 110 8 222 18 197 5 -13 8 -15 8 -5 0
8 -3 22 -8 29 -8 12 -11 8 -18 -15 -7 -28 -8 -27 -16 21 -5 28 -9 76 -10 107
-1 34 -8 62 -16 70 -12 11 -12 10 -5 -2 5 -8 9 -28 10 -45 l1 -30 -13 30 c-7
17 -13 35 -14 42 0 6 -9 28 -21 47 -11 19 -18 40 -14 46 3 5 1 10 -6 10 -9 0
-9 4 1 15 10 12 8 14 -9 10 -12 -2 -19 -1 -17 4 3 4 -4 13 -14 21 -10 8 -17
17 -14 22 3 4 0 8 -6 8 -6 0 -8 5 -5 10 4 6 11 7 17 4 7 -4 8 -2 4 5 -4 6 -11
9 -16 6 -14 -8 -73 54 -66 70 5 13 2 14 -16 4 -18 -10 -20 -9 -15 4 4 12 2 14
-10 10 -13 -5 -15 -2 -10 11 4 10 3 15 -3 11 -16 -10 -34 6 -19 17 11 7 11 9
-1 7 -27 -3 -41 1 -36 9 3 5 -1 9 -7 9 -7 0 -44 14 -81 32 -104 49 -240 74
-356 67 -52 -3 -124 -13 -160 -21 -56 -13 -72 -18 -100 -30 -3 -2 -15 -6 -27
-10 -13 -4 -23 -11 -23 -15 0 -4 -11 -12 -24 -18 -18 -8 -27 -7 -38 5 -11 10
-18 11 -22 4 -4 -6 0 -11 9 -11 18 0 16 -21 -2 -27 -9 -3 -22 28 -29 72 -1 6
-3 12 -4 15 -1 3 -3 12 -5 20 -7 30 -123 347 -134 368 -6 12 -8 22 -4 22 4 0
3 4 -3 8 -13 8 -86 180 -87 204 -1 9 -3 16 -5 14 -1 -2 -40 69 -86 158 -73
140 -82 163 -68 173 8 7 19 10 25 6 6 -3 7 -1 3 5 -4 6 8 16 29 23 19 7 35 17
35 21 0 4 5 8 11 8 12 0 120 80 158 117 13 12 28 20 35 16 6 -3 8 -3 4 2 -4 4
10 29 31 54 76 91 131 191 164 296 72 231 47 587 -67 950 -39 124 -104 312
-116 335 -4 9 2 59 15 117 43 192 59 351 59 598 0 196 -3 244 -21 325 -35 164
-86 248 -175 293 -46 23 -65 27 -138 26 -47 0 -108 -6 -135 -14z m242 -109
c43 -28 87 -112 109 -211 16 -67 19 -120 18 -320 -1 -262 -21 -443 -67 -604
-22 -73 -22 -83 -9 -113 30 -69 93 -253 126 -367 126 -434 131 -750 15 -982
-84 -168 -198 -274 -406 -378 -132 -67 -403 -147 -621 -185 -46 -7 -86 -17
-89 -20 -4 -3 65 -6 153 -6 167 0 295 15 423 51 61 17 75 18 83 7 32 -47 216
-437 261 -553 231 -592 284 -929 201 -1275 -45 -189 -210 -408 -356 -472 -39
-18 -35 -28 10 -28 31 0 40 -6 60 -35 51 -79 11 -175 -93 -225 -80 -38 -127
-48 -270 -55 -66 -3 -148 -8 -181 -10 -56 -4 -64 -2 -87 21 -40 40 -43 76 -11
159 5 16 0 13 -25 -10 -46 -42 -64 -80 -59 -128 l4 -40 -80 6 c-67 4 -84 9
-98 27 -23 29 -23 76 1 123 21 41 17 45 -19 20 -31 -21 -48 -41 -61 -73 -11
-24 -12 -24 -19 -5 -5 11 -9 35 -9 53 -4 161 266 269 504 203 l70 -19 -35 30
c-46 40 -126 75 -186 82 -30 4 -54 13 -62 24 -49 64 -79 175 -86 319 -7 156
43 306 136 408 135 148 310 169 521 65 31 -16 57 -26 57 -23 0 3 -16 26 -36
49 -50 62 -119 106 -194 125 l-65 17 40 16 c90 38 149 137 170 286 l6 45 -30
-60 c-42 -84 -92 -139 -157 -171 -48 -23 -63 -26 -123 -22 -42 3 -87 14 -115
28 l-46 22 6 63 c7 70 -2 139 -17 130 -5 -4 -9 -13 -9 -22 0 -29 -51 -125 -89
-166 -39 -42 -125 -97 -153 -97 -25 0 -31 36 -26 141 2 49 1 86 -3 82 -17 -18
-49 -117 -55 -171 -4 -31 -11 -60 -16 -63 -16 -10 -86 12 -105 33 -15 17 -18
39 -18 149 0 71 -2 125 -6 121 -3 -4 -15 -29 -25 -57 l-19 -50 -3 45 c-6 79
27 210 78 309 32 63 118 150 181 181 74 38 122 45 195 30 62 -13 216 -79 246
-107 26 -24 23 0 -8 52 -30 52 -94 112 -139 131 -61 25 -160 35 -230 23 -104
-18 -195 -80 -280 -189 -112 -145 -163 -350 -131 -528 16 -89 38 -134 90 -180
56 -49 113 -65 213 -60 95 5 160 29 235 89 l38 30 42 -25 c24 -13 59 -27 78
-31 74 -14 75 -16 17 -40 -159 -64 -280 -214 -328 -407 -18 -71 -20 -104 -16
-223 4 -121 8 -152 34 -228 l30 -88 -65 -30 c-82 -37 -126 -70 -159 -120 l-26
-39 -69 0 c-195 0 -433 49 -567 116 -223 112 -387 333 -436 587 -21 109 -29
361 -12 375 25 20 77 25 95 8 37 -33 135 -69 202 -74 90 -6 164 16 222 67 170
150 150 577 -37 767 -27 28 -62 58 -76 67 -43 26 -145 57 -189 57 -22 0 -40 4
-40 9 0 5 16 51 36 104 l36 95 45 6 c25 3 64 6 87 6 52 1 293 63 309 80 10 10
8 11 -8 7 -85 -23 -374 -15 -525 14 -295 57 -535 219 -640 433 -90 181 -119
533 -79 946 14 137 46 350 64 420 l14 54 -78 156 c-128 256 -192 493 -194 715
-1 129 16 211 52 256 17 22 29 24 110 27 168 7 458 -76 649 -185 l77 -44 105
49 c134 64 168 76 287 106 151 38 245 49 403 49 152 -1 298 -20 398 -53 l55
-18 144 84 c401 235 619 304 730 230z m-2121 -3324 c8 -5 -2 -44 -33 -130 -41
-111 -49 -126 -83 -147 -20 -13 -52 -42 -70 -65 -32 -40 -79 -141 -80 -169 0
-7 32 19 71 57 111 113 213 152 329 127 117 -24 212 -136 255 -300 19 -75 18
-231 -3 -300 l-15 -50 -12 45 c-15 57 -42 120 -51 120 -3 0 -3 -19 0 -43 8
-55 -10 -188 -29 -206 -9 -9 -41 -17 -79 -19 l-64 -4 5 65 c5 54 1 77 -17 124
-31 77 -42 87 -34 31 6 -45 -11 -174 -25 -182 -11 -7 -86 56 -122 103 -19 24
-46 81 -61 125 -19 57 -29 75 -34 63 -12 -32 2 -170 20 -206 24 -45 11 -53
-75 -49 -106 5 -168 61 -195 176 -31 132 -10 261 70 425 66 134 131 235 220
340 63 73 86 87 112 69z m2890 -782 c151 -20 253 -69 360 -175 91 -90 136
-170 175 -310 30 -111 30 -276 0 -400 -67 -276 -238 -468 -483 -544 -101 -30
-232 -51 -328 -51 -190 0 -451 65 -480 120 -10 19 -7 26 29 57 59 50 129 144
179 241 l43 85 64 -2 c80 -3 131 11 184 49 99 72 127 175 72 261 -49 78 -134
111 -222 87 l-26 -8 -6 123 c-4 67 -16 167 -27 222 l-20 100 23 21 c70 65 186
112 302 123 44 5 82 9 85 9 3 1 37 -3 76 -8z m-3126 -514 c0 -123 20 -247 56
-348 29 -82 96 -215 122 -244 9 -11 44 -50 76 -88 144 -165 359 -266 645 -301
45 -5 48 -11 25 -43 -56 -77 -261 -122 -557 -122 -90 0 -137 4 -145 12 -28 28
-7 154 35 200 22 24 6 22 -41 -5 -50 -28 -86 -93 -86 -155 l0 -45 -57 6 c-74
8 -98 32 -89 90 8 50 40 111 68 132 23 17 23 17 -12 10 -76 -15 -130 -75 -130
-146 0 -25 -3 -30 -12 -21 -9 9 -8 24 1 66 17 75 62 139 114 164 60 28 193 37
285 19 39 -8 72 -12 72 -9 0 19 -98 70 -162 83 -32 7 -64 22 -82 38 -34 32
-97 114 -119 158 -27 51 -75 193 -87 257 -15 76 -15 209 0 266 13 51 56 130
70 130 6 0 10 -44 10 -104z m2837 -187 c19 -16 16 -26 -12 -54 -13 -14 -19
-25 -12 -25 7 0 6 -4 -3 -10 -8 -5 -11 -10 -6 -10 5 0 3 -7 -4 -15 -7 -9 -10
-19 -6 -22 4 -4 11 -1 16 7 6 8 10 10 10 5 0 -13 -21 -35 -33 -35 -4 0 -6 4
-2 9 6 11 -32 41 -52 41 -7 0 -13 -5 -13 -11 0 -5 4 -8 9 -4 6 3 9 -3 8 -14
-1 -15 -5 -17 -24 -10 -17 6 -23 5 -23 -6 0 -9 6 -12 18 -9 14 5 14 4 2 -4
-17 -13 -26 -8 -33 18 -3 13 -1 18 5 13 8 -4 9 4 5 25 -4 20 -2 32 4 32 6 0 8
10 4 23 -4 15 -3 18 3 9 7 -11 14 -7 31 17 13 18 17 31 11 31 -7 0 -14 -9 -17
-20 -3 -11 -9 -17 -15 -14 -11 7 10 33 37 45 24 10 72 4 92 -12z m14 -87 c-6
-2 -11 -11 -11 -20 0 -13 -2 -14 -12 -3 -10 10 -10 15 -1 18 7 2 9 12 6 21 -6
15 -5 15 11 2 11 -8 14 -16 7 -18z m-81 -52 c0 -5 -4 -10 -10 -10 -5 0 -10 5
-10 10 0 6 5 10 10 10 6 0 10 -4 10 -10z m-2905 -170 c0 -7 -7 -15 -15 -17
-13 -4 -13 -3 0 6 13 10 13 12 0 22 -13 9 -13 10 0 6 8 -2 15 -10 15 -17z
m-12 -66 c-5 -13 24 -27 38 -19 5 4 6 -1 3 -9 -4 -9 -1 -16 6 -16 8 0 11 -9 8
-25 -6 -28 15 -54 28 -34 5 8 3 9 -6 4 -9 -6 -11 -4 -5 5 6 9 4 11 -5 5 -9 -6
-11 -4 -5 4 8 14 30 -1 30 -22 1 -7 7 -11 14 -9 7 1 10 -2 6 -8 -5 -8 -11 -7
-21 1 -21 17 -17 1 8 -34 12 -18 15 -26 7 -20 -9 7 -18 10 -21 7 -3 -3 -9 0
-14 7 -4 8 -3 10 4 5 20 -12 14 4 -13 36 -14 16 -25 39 -25 49 0 22 -24 52
-34 42 -3 -4 -6 0 -6 7 0 13 -15 5 -15 -8 0 -4 -4 -13 -9 -21 -6 -10 -5 -12 2
-7 8 5 12 -1 12 -15 0 -18 -3 -19 -15 -9 -8 6 -18 9 -23 6 -5 -3 -9 8 -10 24
0 24 4 30 20 30 14 0 18 5 14 15 -3 8 -3 22 0 30 5 11 9 11 19 2 7 -6 11 -17
8 -23z m37 6 c0 -5 -5 -10 -11 -10 -5 0 -7 5 -4 10 3 6 8 10 11 10 2 0 4 -4 4
-10z m3844 -15 c3 -8 1 -15 -3 -15 -5 0 -11 7 -15 15 -3 8 -1 15 3 15 5 0 11
-7 15 -15z m-3854 -81 c7 -19 9 -38 6 -41 -3 -4 -6 1 -6 10 0 20 -11 22 -30 5
-12 -11 -12 -10 -1 4 7 10 11 29 9 43 -7 35 8 21 22 -21z m-3314 15 c8 -13
-13 -36 -23 -24 -5 4 -2 10 6 13 11 4 11 6 0 13 -9 6 -10 9 -2 9 6 0 15 -5 19
-11z m929 -49 c-3 -5 -10 -10 -16 -10 -5 0 -9 5 -9 10 0 6 7 10 16 10 8 0 12
-4 9 -10z m-1837 -11 c-5 -14 -78 -22 -78 -9 0 5 17 11 38 13 20 2 39 4 40 5
2 1 2 -3 0 -9z m742 7 c0 -3 -4 -8 -10 -11 -5 -3 -10 -1 -10 4 0 6 5 11 10 11
6 0 10 -2 10 -4z m60 -6 c0 -5 -2 -10 -4 -10 -3 0 -8 5 -11 10 -3 6 -1 10 4
10 6 0 11 -4 11 -10z m825 0 c3 -5 -1 -10 -9 -10 -9 0 -16 5 -16 10 0 6 4 10
9 10 6 0 13 -4 16 -10z m-2365 -18 c0 -37 -57 -75 -67 -45 -2 6 6 13 19 15 13
2 24 9 24 16 3 29 4 32 14 32 6 0 10 -8 10 -18z m1730 8 c0 -5 -4 -10 -10 -10
-5 0 -10 5 -10 10 0 6 5 10 10 10 6 0 10 -4 10 -10z m2430 0 c0 -5 -5 -10 -11
-10 -5 0 -7 5 -4 10 3 6 8 10 11 10 2 0 4 -4 4 -10z m897 -5 c0 -8 -4 -12 -9
-9 -5 3 -6 10 -3 15 9 13 12 11 12 -6z m-3357 -5 c0 -5 -8 -10 -17 -10 -15 0
-16 2 -3 10 19 12 20 12 20 0z m290 -11 c0 -13 -24 -11 -45 4 -16 13 -15 14
13 9 18 -2 32 -8 32 -13z m100 -3 c0 -13 -8 -30 -17 -37 -15 -12 -16 -12 -10
4 4 10 7 27 7 38 0 10 5 19 10 19 6 0 10 -11 10 -24z m1969 15 c9 -6 10 -11 2
-15 -6 -4 -11 -2 -11 4 0 7 -7 10 -15 6 -8 -3 -15 -1 -15 4 0 12 20 13 39 1z
m-4013 -18 c-2 -30 -36 -40 -36 -12 0 6 5 7 10 4 6 -3 10 1 10 9 0 9 4 16 9
16 5 0 8 -8 7 -17z m236 4 c-16 -7 -22 -17 -18 -30 3 -13 0 -17 -10 -13 -8 3
-17 -1 -20 -9 -10 -25 -25 -16 -22 13 2 15 8 26 16 24 7 -1 15 5 18 13 4 8 18
15 33 14 l26 0 -23 -12z m308 3 c11 -7 4 -10 -25 -10 -29 0 -36 3 -25 10 8 5
20 10 25 10 6 0 17 -5 25 -10z m448 -8 c2 -7 -3 -12 -12 -12 -9 0 -16 7 -16
16 0 17 22 14 28 -4z m442 9 c0 -11 -31 -24 -39 -16 -3 3 1 10 9 15 19 12 30
12 30 1z m125 -1 c3 -6 -4 -10 -17 -10 -18 0 -20 2 -8 10 19 12 18 12 25 0z
m979 -5 c-4 -8 -11 -12 -16 -9 -6 4 -5 10 3 15 19 12 19 11 13 -6z m426 5 c0
-5 -5 -10 -11 -10 -5 0 -7 5 -4 10 3 6 8 10 11 10 2 0 4 -4 4 -10z m395 0 c3
-5 -1 -10 -9 -10 -9 0 -16 5 -16 10 0 6 4 10 9 10 6 0 13 -4 16 -10z m113 -7
c-9 -10 -18 -25 -21 -33 -3 -9 -6 -4 -6 12 -1 24 9 35 33 37 5 1 2 -7 -6 -16z
m143 -13 c38 0 57 -18 22 -22 -71 -6 -73 -5 -72 27 1 16 3 22 6 13 3 -13 15
-18 44 -18z m46 24 c-3 -3 -12 -4 -19 -1 -8 3 -5 6 6 6 11 1 17 -2 13 -5z
m-3987 -8 c0 -3 -4 -8 -10 -11 -5 -3 -10 -1 -10 4 0 6 5 11 10 11 6 0 10 -2
10 -4z m1100 -6 c0 -5 -7 -10 -16 -10 -8 0 -12 5 -9 10 3 6 10 10 16 10 5 0 9
-4 9 -10z m1065 0 c-3 -5 -10 -10 -16 -10 -5 0 -9 5 -9 10 0 6 7 10 16 10 8 0
12 -4 9 -10z m454 -4 c9 -11 6 -12 -14 -8 -14 2 -25 8 -25 13 0 14 26 11 39
-5z m196 4 c-3 -5 -13 -10 -21 -10 -8 0 -12 5 -9 10 3 6 13 10 21 10 8 0 12
-4 9 -10z m580 0 c-3 -5 -13 -10 -21 -10 -8 0 -14 5 -14 10 0 6 9 10 21 10 11
0 17 -4 14 -10z m1846 -4 c5 3 8 -12 8 -33 -1 -27 -3 -31 -6 -13 -3 14 -9 29
-14 35 -5 5 -9 14 -8 20 0 5 3 4 6 -3 2 -6 9 -10 14 -6z m3846 -1 c0 -8 -4
-12 -9 -9 -5 3 -6 10 -3 15 9 13 12 11 12 -6z m93 4 c0 -5 -19 -9 -42 -9 -27
0 -38 3 -30 9 18 11 72 12 72 0z m-8020 -3 c0 -2 -3 -11 -6 -20 -9 -23 -24
-20 -24 4 0 11 7 20 15 20 8 0 15 -2 15 -4z m35 -6 c-3 -5 -10 -10 -16 -10 -5
0 -9 5 -9 10 0 6 7 10 16 10 8 0 12 -4 9 -10z m2635 -16 c0 -8 -4 -14 -10 -14
-5 0 -10 9 -10 21 0 11 5 17 10 14 6 -3 10 -13 10 -21z m627 20 c-3 -3 -12 -4
-19 -1 -8 3 -5 6 6 6 11 1 17 -2 13 -5z m-4259 -29 c-3 -28 -13 -33 -22 -9
-10 25 -7 34 9 34 10 0 14 -9 13 -25z m422 15 c0 -5 -7 -10 -16 -10 -8 0 -12
5 -9 10 3 6 10 10 16 10 5 0 9 -4 9 -10z m974 -5 c-22 -16 -44 -19 -44 -6 0 8
16 14 54 20 6 0 1 -6 -10 -14z m384 -8 c3 -12 -2 -15 -15 -11 -16 5 -16 4 1
-10 24 -20 18 -26 -10 -12 -17 9 -19 16 -13 35 10 25 32 24 37 -2z m32 13 c0
-5 -5 -10 -11 -10 -5 0 -7 5 -4 10 3 6 8 10 11 10 2 0 4 -4 4 -10z m2955 -14
c0 -14 -9 -20 -28 -23 -17 -2 -26 0 -23 6 4 5 -3 12 -14 16 -36 11 -21 27 23
23 33 -3 42 -8 42 -22z m335 18 c0 -8 -19 -13 -24 -6 -3 5 1 9 9 9 8 0 15 -2
15 -3z m-5299 -27 c-5 -5 -22 -6 -38 -2 -25 7 -26 8 -8 15 26 9 60 1 46 -13z
m366 17 c-3 -3 -12 -4 -19 -1 -8 3 -5 6 6 6 11 1 17 -2 13 -5z m1310 0 c-3 -3
-12 -4 -19 -1 -8 3 -5 6 6 6 11 1 17 -2 13 -5z m2203 -20 c0 -8 -4 -14 -10
-14 -5 0 -10 9 -10 21 0 11 5 17 10 14 6 -3 10 -13 10 -21z m1335 15 c11 -16
1 -19 -13 -3 -7 8 -8 14 -3 14 5 0 13 -5 16 -11z m-3925 -14 c0 -8 -4 -15 -10
-15 -5 0 -10 7 -10 15 0 8 5 15 10 15 6 0 10 -7 10 -15z m1177 -7 c-3 -8 -6
-5 -6 6 -1 11 2 17 5 13 3 -3 4 -12 1 -19z m2373 1 c0 -5 -7 -9 -15 -9 -15 0
-20 12 -9 23 8 8 24 -1 24 -14z m-4531 -18 c-15 -5 -22 6 -14 19 6 9 10 9 16
-1 5 -8 4 -15 -2 -18z m2099 -16 c-13 -12 -43 -7 -46 7 -2 13 1 16 12 12 10
-4 19 1 23 12 7 17 8 17 11 -4 2 -13 2 -25 0 -27z m-1941 15 c3 -10 2 -11 -4
-4 -4 6 -15 14 -23 17 -11 5 -9 6 4 4 11 -1 21 -9 23 -17z m683 10 c0 -5 -2
-10 -4 -10 -3 0 -8 5 -11 10 -3 6 -1 10 4 10 6 0 11 -4 11 -10z m44 4 c9 -3
16 -15 16 -25 0 -17 -3 -18 -20 -7 -11 7 -15 15 -9 17 8 2 7 6 -2 12 -16 10
-8 12 15 3z m3928 -6 c7 -20 4 -68 -4 -68 -4 0 -18 5 -30 10 l-23 9 23 0 c12
1 22 5 22 9 0 5 -10 14 -22 20 l-23 11 22 0 c12 1 24 -5 26 -11 4 -10 6 -10 6
0 1 7 -9 17 -21 22 -23 9 -23 9 -2 9 12 1 24 -5 26 -11z m-4585 -20 c-3 -8 -6
-5 -6 6 -1 11 2 17 5 13 3 -3 4 -12 1 -19z m-24 -21 c-3 -5 -10 -4 -15 1 -6 6
-7 16 -3 22 6 9 9 9 16 -1 4 -7 5 -17 2 -22z m2667 23 c0 -5 -4 -10 -10 -10
-5 0 -10 5 -10 10 0 6 5 10 10 10 6 0 10 -4 10 -10z m2012 -26 c-9 -7 -19 -11
-22 -9 -3 2 -10 -8 -17 -21 -12 -26 -5 -32 15 -12 7 7 12 8 12 3 0 -20 -16
-30 -47 -31 l-32 -2 25 26 c15 18 22 34 18 47 -4 16 -3 17 5 5 10 -13 11 -13
12 0 0 10 2 11 6 2 2 -6 9 -9 14 -6 6 3 5 12 -3 21 -12 15 -11 15 9 3 20 -13
20 -15 5 -26z m3828 32 c0 -2 -7 -7 -16 -10 -8 -3 -12 -2 -9 4 6 10 25 14 25
6z m210 0 c0 -3 -4 -8 -10 -11 -5 -3 -10 -1 -10 4 0 6 5 11 10 11 6 0 10 -2
10 -4z m-313 -13 c-4 -3 1 -16 10 -27 18 -21 18 -21 -4 -2 -20 16 -23 36 -6
36 4 0 3 -3 0 -7z m43 -3 c0 -5 -7 -10 -16 -10 -8 0 -12 5 -9 10 3 6 10 10 16
10 5 0 9 -4 9 -10z m-7684 -10 c9 0 13 -4 10 -9 -7 -11 -56 -2 -56 11 0 6 7 7
16 4 9 -3 22 -6 30 -6z m7619 -10 c4 -6 1 -9 -7 -8 -7 2 -12 -2 -11 -9 2 -8
-4 -10 -15 -6 -14 5 -15 4 -4 -8 10 -11 16 -11 32 -1 11 7 20 8 20 3 0 -14
-55 -30 -71 -20 -10 6 -10 9 -1 9 6 0 11 4 10 9 -2 5 6 17 17 25 24 19 22 18
30 6z m-5455 -4 c0 -2 -7 -6 -15 -10 -8 -3 -15 -1 -15 4 0 6 7 10 15 10 8 0
15 -2 15 -4z m-2440 -26 c-8 -5 -19 -10 -25 -10 -5 0 -3 5 5 10 8 5 20 10 25
10 6 0 3 -5 -5 -10z m100 -20 c0 -5 -2 -10 -4 -10 -3 0 -8 5 -11 10 -3 6 -1
10 4 10 6 0 11 -4 11 -10z m145 0 c-3 -5 -13 -10 -21 -10 -8 0 -14 5 -14 10 0
6 9 10 21 10 11 0 17 -4 14 -10z m7553 -23 c-1 -2 4 -12 12 -22 9 -11 10 -16
3 -11 -7 4 -13 2 -13 -3 0 -6 -7 -11 -16 -11 -8 0 -13 -4 -10 -9 4 -5 -3 -7
-14 -4 -25 7 -26 -13 -2 -41 l17 -21 -23 20 c-16 13 -21 26 -17 42 4 18 2 21
-12 16 -19 -7 -18 -5 10 17 14 10 17 11 15 0 -2 -7 2 -14 9 -17 8 -3 11 3 8
16 -2 11 0 23 5 26 5 3 7 -4 5 -15 -3 -14 0 -20 8 -17 7 2 11 14 11 26 -1 12
1 20 3 17 3 -2 3 -6 1 -9z m-6448 -7 c0 -5 -4 -10 -10 -10 -5 0 -10 5 -10 10
0 6 5 10 10 10 6 0 10 -4 10 -10z m2815 -8 c-3 -3 -11 0 -18 7 -9 10 -8 11 6
5 10 -3 15 -9 12 -12z m-5075 -32 c0 -5 -2 -10 -4 -10 -3 0 -8 5 -11 10 -3 6
-1 10 4 10 6 0 11 -4 11 -10z m1067 4 c-3 -3 -12 -4 -19 -1 -8 3 -5 6 6 6 11
1 17 -2 13 -5z m1545 -46 c-7 -7 -12 -8 -12 -2 0 14 12 26 19 19 2 -3 -1 -11
-7 -17z m6023 -16 c-3 -3 -11 0 -18 7 -9 10 -8 11 6 5 10 -3 15 -9 12 -12z
m-110 -12 c-3 -5 -12 -10 -18 -10 -7 0 -6 4 3 10 19 12 23 12 15 0z m-4300
-50 c3 -5 1 -10 -4 -10 -6 0 -11 5 -11 10 0 6 2 10 4 10 3 0 8 -4 11 -10z
m842 -42 c-3 -7 -5 -2 -5 12 0 14 2 19 5 13 2 -7 2 -19 0 -25z m-32 -9 c-2
-17 -6 -33 -9 -36 -3 -3 -3 8 -2 23 5 43 6 44 11 44 2 0 2 -14 0 -31z m18 -34
c-3 -9 -8 -14 -10 -11 -3 3 -2 9 2 15 9 16 15 13 8 -4z m170 -122 c-7 -2 -19
-2 -25 0 -7 3 -2 5 12 5 14 0 19 -2 13 -5z"/>
<path d="M7645 5944 c-101 -52 -396 -285 -395 -313 0 -3 28 -24 63 -46 127
-81 341 -319 407 -452 38 -78 41 -80 60 -30 43 113 69 271 77 462 9 224 -20
378 -72 399 -34 13 -92 5 -140 -20z m93 -215 c2 -5 7 -7 11 -5 4 3 13 -16 21
-41 10 -37 11 -71 2 -172 -13 -158 -22 -234 -28 -240 -8 -8 -65 63 -60 76 3 7
2 12 -2 10 -5 -1 -30 23 -56 53 -27 30 -64 69 -82 86 -19 17 -34 37 -34 45 1
10 5 8 15 -5 8 -11 15 -15 15 -9 0 5 -10 18 -22 29 -12 10 -18 14 -15 7 4 -6
3 -14 -3 -18 -5 -3 -10 0 -10 7 0 20 111 136 162 169 41 27 78 31 86 8z m-333
-97 c-3 -3 -11 0 -18 7 -9 10 -8 11 6 5 10 -3 15 -9 12 -12z"/>
<path d="M4919 5745 c-65 -35 -69 -173 -14 -396 39 -157 103 -296 187 -408
l41 -54 32 85 c54 145 167 321 289 455 l67 72 -56 35 c-111 71 -132 84 -228
134 -159 83 -261 108 -318 77z m164 -212 c28 -15 87 -62 130 -105 64 -64 75
-78 61 -86 -8 -5 -16 -13 -16 -18 0 -14 -31 -64 -40 -64 -4 0 -8 -5 -8 -11 0
-18 -41 -70 -51 -64 -5 4 -6 -1 -3 -10 6 -16 -35 -105 -48 -105 -17 0 -16 19
2 35 11 10 20 23 20 29 0 6 -7 0 -16 -12 -15 -21 -42 -32 -29 -12 3 6 2 10 -3
10 -9 0 -60 108 -66 140 -2 8 -8 29 -15 45 -30 73 -22 224 13 247 15 10 10 12
69 -19z m-116 -45 c-3 -8 -6 -5 -6 6 -1 11 2 17 5 13 3 -3 4 -12 1 -19z m347
-84 c3 -8 2 -12 -4 -9 -6 3 -10 10 -10 16 0 14 7 11 14 -7z"/>
<path d="M7273 4725 c-107 -24 -176 -110 -202 -252 -6 -31 -9 -58 -8 -60 2 -1
25 28 51 66 53 79 122 136 179 152 77 20 205 -13 314 -81 35 -22 63 -37 63
-34 0 13 -81 113 -111 135 -90 69 -192 95 -286 74z"/>
<path d="M5542 4485 c-82 -25 -135 -73 -181 -163 -22 -43 -54 -152 -47 -160 3
-2 16 18 29 45 31 61 98 127 162 161 44 23 61 27 140 26 106 0 158 -19 224
-81 l41 -40 0 30 c0 45 -36 111 -76 142 -67 51 -200 69 -292 40z"/>
<path d="M6360 4378 c-128 -45 -216 -120 -278 -236 -18 -33 -32 -63 -32 -67 0
-4 32 27 70 68 89 95 178 152 277 178 150 38 296 18 456 -63 33 -16 61 -27 63
-25 6 6 -87 67 -151 100 -95 48 -138 60 -240 64 -85 3 -110 0 -165 -19z"/>
<path d="M6422 4270 c-112 -24 -178 -103 -142 -171 15 -26 77 -64 139 -84 53
-18 58 -25 63 -90 3 -37 0 -41 -37 -62 -22 -13 -71 -33 -109 -44 -57 -18 -74
-20 -105 -10 -48 14 -72 41 -81 89 l-7 37 -17 -37 c-24 -55 -20 -76 19 -111
100 -90 144 -138 180 -196 34 -58 39 -74 46 -155 4 -50 13 -107 18 -127 30
-99 101 -149 211 -149 116 0 196 58 230 164 16 50 8 161 -14 205 -16 30 -17
43 -6 114 15 103 43 194 75 241 56 82 67 124 42 157 -10 13 -49 39 -59 39 -2
0 -1 -22 0 -48 3 -41 -1 -53 -24 -82 -53 -63 -146 -85 -249 -59 l-44 11 -7 56
c-5 40 -3 57 5 60 7 2 31 18 53 36 53 40 79 90 76 141 -3 32 -9 42 -37 59 -38
22 -150 30 -219 16z m168 -59 c0 -9 -34 -22 -90 -35 -32 -7 -130 4 -130 15 0
15 63 27 143 28 42 1 77 -3 77 -8z m132 -675 c14 -7 25 -24 33 -56 1 -3 5 -13
10 -23 12 -28 -3 -127 -25 -163 -26 -41 -75 -64 -140 -64 -80 0 -130 37 -143
107 -2 10 -7 26 -12 36 -4 10 -5 39 -2 65 6 53 36 85 76 80 22 -3 31 -14 55
-75 16 -40 31 -72 32 -70 1 1 5 34 9 72 9 93 40 120 107 91z"/>
<path d="M6546 3447 c3 -10 9 -15 12 -12 3 3 0 11 -7 18 -10 9 -11 8 -5 -6z"/>
<path d="M6718 3377 c-30 -32 -46 -40 -83 -43 -53 -5 -122 11 -148 34 -17 15
-18 15 -14 -8 11 -56 20 -80 28 -74 5 3 9 -1 9 -9 0 -34 96 -46 154 -21 51 23
71 47 86 101 17 59 10 63 -32 20z"/>
<path d="M8263 1260 c28 -22 42 -24 29 -4 -4 6 -18 15 -32 19 -25 7 -25 7 3
-15z"/>
<path d="M8168 1185 c-3 -13 -2 -22 2 -20 11 7 20 45 10 45 -4 0 -10 -11 -12
-25z"/>
<path d="M8210 1205 c0 -7 30 -13 34 -7 3 4 -4 9 -15 9 -10 1 -19 0 -19 -2z"/>
<path d="M8225 1170 c3 -5 11 -10 16 -10 6 0 7 5 4 10 -3 6 -11 10 -16 10 -6
0 -7 -4 -4 -10z"/>
<path d="M5496 2782 c-3 -5 1 -9 9 -9 8 0 12 4 9 9 -3 4 -7 8 -9 8 -2 0 -6 -4
-9 -8z"/>
<path d="M7846 2695 c-9 -26 -7 -32 5 -12 6 10 9 21 6 23 -2 3 -7 -2 -11 -11z"/>
<path d="M5316 2552 c-3 -5 1 -9 9 -9 8 0 12 4 9 9 -3 4 -7 8 -9 8 -2 0 -6 -4
-9 -8z"/>
<path d="M8011 2194 c0 -11 3 -14 6 -6 3 7 2 16 -1 19 -3 4 -6 -2 -5 -13z"/>
<path d="M5162 1940 c0 -14 2 -19 5 -12 2 6 2 18 0 25 -3 6 -5 1 -5 -13z"/>
<path d="M9115 1790 c3 -5 8 -10 11 -10 2 0 4 5 4 10 0 6 -5 10 -11 10 -5 0
-7 -4 -4 -10z"/>
<path d="M1745 1779 c-4 -6 -5 -12 -2 -15 2 -3 7 2 10 11 7 17 1 20 -8 4z"/>
<path d="M2155 1740 c-3 -6 1 -7 9 -4 18 7 21 14 7 14 -6 0 -13 -4 -16 -10z"/>
<path d="M9170 1729 c0 -5 5 -7 10 -4 6 3 10 8 10 11 0 2 -4 4 -10 4 -5 0 -10
-5 -10 -11z"/>
<path d="M5254 1715 c8 -8 18 -15 22 -15 3 0 1 7 -6 15 -7 8 -17 15 -22 15 -5
0 -3 -7 6 -15z"/>
<path d="M9196 1707 c3 -10 9 -15 12 -12 3 3 0 11 -7 18 -10 9 -11 8 -5 -6z"/>
<path d="M5293 1686 c0 -8 5 -14 11 -13 6 1 10 -6 8 -17 -3 -15 -1 -16 11 -5
8 8 14 14 13 14 0 0 -10 8 -22 18 -17 14 -21 14 -21 3z"/>
<path d="M9170 1691 c0 -5 5 -13 10 -16 6 -3 10 -2 10 4 0 5 -4 13 -10 16 -5
3 -10 2 -10 -4z"/>
<path d="M5240 1686 c0 -2 7 -7 16 -10 8 -3 12 -2 9 4 -6 10 -25 14 -25 6z"/>
<path d="M5345 1650 c-3 -5 1 -10 10 -10 9 0 13 5 10 10 -3 6 -8 10 -10 10 -2
0 -7 -4 -10 -10z"/>
<path d="M5294 1589 c-4 -7 -3 -9 4 -5 5 3 13 0 15 -6 4 -9 6 -10 6 -1 1 17
-16 25 -25 12z"/>
<path d="M5254 1582 c4 -7 2 -19 -4 -27 -7 -9 -8 -15 -2 -15 16 0 24 32 11 44
-9 8 -10 8 -5 -2z"/>
<path d="M2195 1510 c-3 -5 -1 -10 4 -10 6 0 11 5 11 10 0 6 -2 10 -4 10 -3 0
-8 -4 -11 -10z"/>
<path d="M5230 1499 c0 -5 5 -7 10 -4 6 3 10 8 10 11 0 2 -4 4 -10 4 -5 0 -10
-5 -10 -11z"/>
<path d="M9282 1490 c0 -14 2 -19 5 -12 2 6 2 18 0 25 -3 6 -5 1 -5 -13z"/>
<path d="M5245 1471 c3 -5 1 -12 -5 -16 -5 -3 -10 -14 -10 -23 0 -11 6 -6 15
12 18 34 18 36 4 36 -5 0 -8 -4 -4 -9z"/>
<path d="M9260 1311 c0 -6 4 -13 10 -16 6 -3 7 1 4 9 -7 18 -14 21 -14 7z"/>
<path d="M9277 1235 c-4 -8 -2 -17 3 -20 6 -4 10 3 10 14 0 25 -6 27 -13 6z"/>
<path d="M9302 1220 c0 -19 2 -27 5 -17 2 9 2 25 0 35 -3 9 -5 1 -5 -18z"/>
<path d="M5226 1208 c-3 -13 -1 -27 4 -32 7 -7 10 1 10 22 0 37 -5 41 -14 10z"/>
<path d="M2378 1213 c7 -3 16 -2 19 1 4 3 -2 6 -13 5 -11 0 -14 -3 -6 -6z"/>
<path d="M1855 1200 c-3 -5 -1 -10 4 -10 6 0 11 5 11 10 0 6 -2 10 -4 10 -3 0
-8 -4 -11 -10z"/>
<path d="M3248 1183 c7 -3 16 -2 19 1 4 3 -2 6 -13 5 -11 0 -14 -3 -6 -6z"/>
<path d="M9334 1165 c-7 -18 3 -35 23 -35 10 0 13 6 9 16 -3 9 -6 20 -6 25 0
15 -20 10 -26 -6z"/>
<path d="M9450 1170 c0 -5 5 -10 10 -10 6 0 10 5 10 10 0 6 -4 10 -10 10 -5 0
-10 -4 -10 -10z"/>
<path d="M1260 1166 c0 -2 7 -7 16 -10 8 -3 12 -2 9 4 -6 10 -25 14 -25 6z"/>
<path d="M3848 1153 c7 -3 16 -2 19 1 4 3 -2 6 -13 5 -11 0 -14 -3 -6 -6z"/>
<path d="M4160 1145 c0 -8 4 -15 10 -15 5 0 7 7 4 15 -4 8 -8 15 -10 15 -2 0
-4 -7 -4 -15z"/>
<path d="M3030 1140 c0 -6 7 -10 15 -10 8 0 15 2 15 4 0 2 -7 6 -15 10 -8 3
-15 1 -15 -4z"/>
<path d="M3245 1139 c-4 -5 10 -9 29 -9 20 0 36 4 36 8 0 12 -58 13 -65 1z"/>
<path d="M3468 1143 c6 -2 18 -2 25 0 6 3 1 5 -13 5 -14 0 -19 -2 -12 -5z"/>
<path d="M3538 1143 c-20 -5 -25 -24 -5 -20 7 1 11 -8 10 -26 -2 -29 18 -34
23 -6 2 7 5 24 8 37 5 22 -1 24 -36 15z"/>
<path d="M690 1129 c0 -5 5 -7 10 -4 6 3 10 8 10 11 0 2 -4 4 -10 4 -5 0 -10
-5 -10 -11z"/>
<path d="M2770 1130 c0 -5 5 -10 11 -10 5 0 7 5 4 10 -3 6 -8 10 -11 10 -2 0
-4 -4 -4 -10z"/>
<path d="M4464 1121 c10 -11 15 -25 11 -30 -3 -6 -4 -11 -1 -11 3 0 12 14 21
30 9 17 11 30 5 30 -5 0 -10 -5 -10 -12 0 -9 -3 -9 -12 0 -20 20 -32 13 -14
-7z"/>
<path d="M4915 1103 c0 -30 -4 -38 -18 -37 -14 2 -15 -1 -6 -12 9 -11 13 -11
25 1 14 14 20 85 7 85 -5 0 -8 -17 -8 -37z"/>
<path d="M5185 1132 c-10 -10 -5 -22 9 -22 8 0 16 6 19 13 5 13 -17 19 -28 9z"/>
<path d="M330 1120 c0 -5 5 -10 10 -10 6 0 10 5 10 10 0 6 -4 10 -10 10 -5 0
-10 -4 -10 -10z"/>
<path d="M1050 1110 c0 -5 5 -10 10 -10 6 0 10 5 10 10 0 6 -4 10 -10 10 -5 0
-10 -4 -10 -10z"/>
<path d="M2535 1107 c-12 -9 -14 -16 -7 -21 6 -4 9 -13 5 -21 -3 -8 0 -15 7
-15 7 0 10 8 7 19 -2 10 0 26 5 35 11 20 7 20 -17 3z"/>
<path d="M3753 1106 c5 -15 37 -20 49 -8 6 6 -1 11 -22 14 -19 3 -29 1 -27 -6z"/>
<path d="M4121 1111 c-9 -6 -4 -10 18 -13 20 -3 30 -1 28 6 -5 14 -29 18 -46
7z"/>
<path d="M4330 1105 c0 -8 5 -15 10 -15 6 0 10 7 10 15 0 8 -4 15 -10 15 -5 0
-10 -7 -10 -15z"/>
<path d="M4376 1112 c-2 -4 -1 -14 5 -22 7 -12 9 -10 9 8 0 23 -5 28 -14 14z"/>
<path d="M4530 1107 c0 -9 5 -17 10 -17 6 0 10 -8 11 -17 0 -11 3 -13 6 -6 2
7 -3 23 -11 35 -13 18 -16 19 -16 5z"/>
<path d="M4682 1100 c0 -14 2 -19 5 -12 2 6 2 18 0 25 -3 6 -5 1 -5 -13z"/>
<path d="M1398 1103 c7 -3 16 -2 19 1 4 3 -2 6 -13 5 -11 0 -14 -3 -6 -6z"/>
<path d="M1960 1101 c0 -5 -3 -16 -6 -24 -11 -28 24 -47 82 -45 30 2 54 7 54
11 0 11 -18 16 -75 20 -45 3 -50 6 -47 25 2 12 1 22 -2 22 -3 0 -6 -4 -6 -9z"/>
<path d="M2720 1099 c-27 -8 -26 -9 8 -13 13 -2 25 1 28 5 7 12 -9 16 -36 8z"/>
<path d="M2990 1100 c0 -5 5 -10 11 -10 5 0 7 5 4 10 -3 6 -8 10 -11 10 -2 0
-4 -4 -4 -10z"/>
<path d="M4600 1102 c1 -18 18 -32 33 -26 26 9 20 29 -8 32 -14 1 -25 -2 -25
-6z"/>
<path d="M9425 1102 c-3 -3 -5 -14 -5 -26 0 -20 0 -20 14 0 12 15 17 17 27 7
15 -15 45 -17 53 -5 6 10 -80 32 -89 24z"/>
<path d="M180 1085 c0 -8 5 -15 10 -15 6 0 10 7 10 15 0 8 -4 15 -10 15 -5 0
-10 -7 -10 -15z"/>
<path d="M645 1090 c4 -6 11 -8 16 -5 14 9 11 15 -7 15 -8 0 -12 -5 -9 -10z"/>
<path d="M2610 1090 c0 -5 -7 -7 -15 -4 -8 4 -15 2 -15 -3 0 -18 12 -22 31
-12 20 10 26 29 9 29 -5 0 -10 -4 -10 -10z"/>
<path d="M3100 1090 l-25 -6 24 -8 c13 -5 27 -4 33 2 14 14 -2 20 -32 12z"/>
<path d="M3595 1089 c-4 -6 -5 -13 -2 -16 7 -7 27 6 27 18 0 12 -17 12 -25 -2z"/>
<path d="M9373 1080 c-1 -11 2 -20 8 -20 5 0 9 9 9 20 0 11 -4 20 -8 20 -4 0
-8 -9 -9 -20z"/>
<path d="M326 1075 c-3 -9 0 -15 9 -15 8 0 15 7 15 15 0 8 -4 15 -9 15 -5 0
-11 -7 -15 -15z"/>
<path d="M430 1076 c0 -9 5 -16 10 -16 6 0 10 4 10 9 0 6 -4 13 -10 16 -5 3
-10 -1 -10 -9z"/>
<path d="M1383 1083 c9 -2 23 -2 30 0 6 3 -1 5 -18 5 -16 0 -22 -2 -12 -5z"/>
<path d="M2355 1074 c-20 -15 -12 -17 19 -5 11 4 15 10 10 13 -5 4 -18 0 -29
-8z"/>
<path d="M2440 1075 c0 -9 -11 -20 -25 -25 -27 -10 -33 -20 -12 -20 7 0 23 9
35 20 12 11 26 20 31 20 5 0 13 5 16 10 4 6 -5 10 -19 10 -17 0 -26 -6 -26
-15z"/>
<path d="M3648 1078 c8 -8 17 -8 34 0 22 10 21 11 -11 11 -27 1 -32 -2 -23
-11z"/>
<path d="M3740 1080 c0 -5 5 -10 10 -10 6 0 10 5 10 10 0 6 -4 10 -10 10 -5 0
-10 -4 -10 -10z"/>
<path d="M990 1070 c0 -5 5 -10 10 -10 6 0 10 5 10 10 0 6 -4 10 -10 10 -5 0
-10 -4 -10 -10z"/>
<path d="M1910 1070 c0 -5 7 -7 15 -4 8 4 15 8 15 10 0 2 -7 4 -15 4 -8 0 -15
-4 -15 -10z"/>
<path d="M2129 1080 c0 -3 -2 -15 -5 -27 -3 -16 1 -23 11 -23 8 0 15 6 15 13
0 12 -19 46 -21 37z"/>
<path d="M2173 1055 c0 -15 5 -25 14 -25 10 0 13 6 9 16 -3 9 -6 20 -6 25 0 5
-4 9 -9 9 -5 0 -8 -11 -8 -25z"/>
<path d="M3840 1070 c0 -5 14 -10 31 -10 17 0 28 4 24 10 -3 6 -17 10 -31 10
-13 0 -24 -4 -24 -10z"/>
<path d="M4506 1065 c-6 -18 2 -45 15 -45 5 0 9 14 9 30 0 32 -14 40 -24 15z"/>
<path d="M4571 1051 c-1 -27 2 -32 11 -23 8 8 8 17 0 34 -10 22 -11 21 -11
-11z"/>
<path d="M5226 1067 c3 -10 9 -15 12 -12 3 3 0 11 -7 18 -10 9 -11 8 -5 -6z"/>
<path d="M9310 1057 c0 -13 -5 -28 -11 -34 -8 -8 -8 -13 0 -17 6 -4 11 -18 11
-31 0 -22 3 -24 38 -19 20 2 45 7 55 10 11 3 17 0 17 -10 0 -9 5 -16 10 -16
15 0 12 29 -5 46 -8 9 -15 11 -15 5 0 -6 -7 -11 -15 -11 -9 0 -15 10 -15 26 0
14 -4 23 -10 19 -6 -4 -8 -11 -5 -16 4 -5 2 -9 -4 -9 -15 0 -23 18 -11 25 5 3
10 11 10 16 0 6 -5 7 -11 4 -6 -4 -13 2 -16 14 -7 28 -23 27 -23 -2z m48 -67
c15 0 15 -2 2 -10 -25 -16 -35 -11 -37 17 -1 22 1 24 8 10 6 -9 18 -17 27 -17z"/>
<path d="M488 1063 c7 -3 16 -2 19 1 4 3 -2 6 -13 5 -11 0 -14 -3 -6 -6z"/>
<path d="M905 1060 c3 -5 18 -10 32 -10 32 0 28 5 -10 14 -19 4 -26 3 -22 -4z"/>
<path d="M1065 1060 c-3 -5 1 -10 9 -10 9 0 16 5 16 10 0 6 -4 10 -9 10 -6 0
-13 -4 -16 -10z"/>
<path d="M1140 1060 c10 -6 11 -10 3 -10 -7 0 -15 0 -18 0 -3 0 -20 -9 -40
-20 -30 -17 -39 -18 -77 -7 -24 7 -56 10 -73 6 -16 -4 -69 -7 -116 -8 -121 -1
-179 -11 -179 -28 0 -8 -4 -11 -10 -8 -5 3 -10 1 -10 -4 0 -6 15 -11 33 -11
24 0 28 3 17 10 -11 7 -7 10 18 10 17 0 32 -3 32 -7 0 -5 75 -8 167 -8 124 0
168 4 171 13 4 12 64 42 83 42 5 0 9 -5 9 -10 0 -6 -7 -10 -16 -8 -10 2 -19
-3 -21 -9 -3 -8 3 -13 14 -13 12 0 14 -3 6 -8 -9 -5 -1 -12 23 -21 43 -15 54
-8 29 19 -17 19 -17 20 6 29 l24 9 -28 11 c-16 6 -26 15 -23 20 3 5 -1 12 -10
15 -24 9 -31 7 -14 -4z m-146 -46 c27 -10 7 -24 -35 -24 -42 0 -54 16 -16 23
12 2 25 5 29 6 3 0 13 -2 22 -5z"/>
<path d="M1378 1063 c7 -3 16 -2 19 1 4 3 -2 6 -13 5 -11 0 -14 -3 -6 -6z"/>
<path d="M1478 1063 c7 -3 16 -2 19 1 4 3 -2 6 -13 5 -11 0 -14 -3 -6 -6z"/>
<path d="M1555 1060 c-3 -5 -4 -14 0 -20 8 -13 -5 -58 -19 -63 -8 -3 -11 6
-10 27 1 17 -1 21 -3 9 -5 -29 -29 -30 -43 -2 -8 14 -15 17 -23 10 -18 -15
-162 -19 -162 -4 0 6 -3 15 -7 19 -5 4 -8 -5 -8 -19 0 -15 4 -27 9 -27 5 0 7
-9 4 -20 -3 -11 -1 -20 5 -20 6 0 14 9 17 20 3 11 13 20 21 20 8 0 12 -5 9
-10 -4 -7 3 -8 21 -4 18 5 25 3 20 -4 -9 -15 20 -21 102 -20 59 1 72 4 72 18
0 11 16 19 58 26 61 12 86 9 75 -9 -4 -6 0 -8 10 -4 9 3 19 2 22 -3 4 -6 32
-9 63 -8 l57 1 -50 7 c-37 5 -42 7 -20 9 l30 3 -30 9 c-16 5 -38 6 -48 3 -10
-3 -19 1 -23 10 -7 19 -60 22 -66 4 -3 -7 -14 -9 -33 -4 -22 6 -25 10 -15 16
8 5 18 6 22 4 4 -3 8 2 8 11 0 13 -4 14 -20 5 -18 -10 -24 -7 -21 13 2 11 -17
9 -24 -3z m-80 -80 c4 -6 -9 -10 -32 -9 -38 1 -38 1 -8 9 17 4 31 8 32 9 1 0
5 -3 8 -9z"/>
<path d="M4160 1066 c0 -2 9 -6 20 -9 11 -3 18 -1 14 4 -5 9 -34 13 -34 5z"/>
<path d="M4353 1049 c-1 -10 5 -19 13 -19 17 0 18 14 1 28 -10 8 -13 6 -14 -9z"/>
<path d="M96 1051 c-4 -7 -5 -15 -2 -18 9 -9 19 4 14 18 -4 11 -6 11 -12 0z"/>
<path d="M2226 1045 c-3 -8 -1 -15 4 -15 6 0 10 7 10 15 0 8 -2 15 -4 15 -2 0
-6 -7 -10 -15z"/>
<path d="M2265 1050 c3 -5 11 -10 16 -10 6 0 7 5 4 10 -3 6 -11 10 -16 10 -6
0 -7 -4 -4 -10z"/>
<path d="M3311 1045 c3 -16 14 -21 47 -23 26 -2 42 1 42 8 0 7 -12 10 -29 8
-16 -1 -36 4 -46 12 -16 13 -17 12 -14 -5z"/>
<path d="M3927 1045 c-4 -8 -1 -18 6 -22 19 -11 -52 -23 -100 -17 -42 6 -51
24 -12 24 10 0 19 5 19 10 0 6 -11 10 -24 10 -14 0 -28 -4 -31 -10 -3 -5 -19
-10 -34 -10 -30 0 -81 -20 -81 -32 0 -11 28 -10 34 1 6 10 76 11 76 1 0 -3 -5
-11 -12 -18 -9 -9 -4 -9 23 -2 44 13 52 13 43 -1 -4 -8 1 -7 15 1 12 6 35 8
52 5 38 -9 62 14 53 50 -7 28 -19 33 -27 10z"/>
<path d="M4000 1040 c0 -13 -5 -18 -15 -14 -8 4 -15 1 -15 -5 0 -7 7 -14 15
-17 8 -4 12 -10 9 -15 -3 -5 7 -4 21 3 23 10 29 10 40 -6 9 -11 20 -16 33 -12
14 5 21 1 25 -14 5 -19 8 -20 26 -8 20 12 20 13 1 20 -12 5 -17 13 -14 23 7
17 30 20 39 5 9 -15 25 -12 25 4 0 18 -28 25 -58 14 -36 -13 -104 2 -109 23
-7 25 -23 24 -23 -1z"/>
<path d="M4230 1039 c0 -11 5 -17 10 -14 6 3 10 13 10 21 0 8 -4 14 -10 14 -5
0 -10 -9 -10 -21z"/>
<path d="M4280 1045 c0 -10 9 -14 25 -13 28 3 33 13 9 22 -25 10 -34 7 -34 -9z"/>
<path d="M4410 1053 c0 -5 9 -19 20 -33 16 -20 20 -22 20 -7 0 9 -4 17 -10 17
-5 0 -10 7 -10 15 0 8 -4 15 -10 15 -5 0 -10 -3 -10 -7z"/>
<path d="M4450 1050 c0 -5 5 -10 10 -10 6 0 10 5 10 10 0 6 -4 10 -10 10 -5 0
-10 -4 -10 -10z"/>
<path d="M4830 1050 c0 -5 5 -10 11 -10 5 0 7 5 4 10 -3 6 -8 10 -11 10 -2 0
-4 -4 -4 -10z"/>
<path d="M5088 1053 c7 -3 16 -2 19 1 4 3 -2 6 -13 5 -11 0 -14 -3 -6 -6z"/>
<path d="M300 1040 c0 -5 5 -10 10 -10 6 0 10 5 10 10 0 6 -4 10 -10 10 -5 0
-10 -4 -10 -10z"/>
<path d="M374 1038 c-3 -4 9 -8 25 -8 17 0 31 4 31 8 0 4 -12 8 -26 8 -14 0
-28 -4 -30 -8z"/>
<path d="M1760 1040 c0 -13 11 -13 30 0 12 8 11 10 -7 10 -13 0 -23 -4 -23
-10z"/>
<path d="M1840 1040 c0 -5 5 -10 10 -10 6 0 10 5 10 10 0 6 -4 10 -10 10 -5 0
-10 -4 -10 -10z"/>
<path d="M1900 1040 c0 -5 4 -10 9 -10 6 0 13 5 16 10 3 6 -1 10 -9 10 -9 0
-16 -4 -16 -10z"/>
<path d="M2460 1040 c0 -5 11 -10 25 -10 14 0 25 5 25 10 0 6 -11 10 -25 10
-14 0 -25 -4 -25 -10z"/>
<path d="M2593 1043 c-20 -7 -15 -23 6 -23 11 0 22 -4 25 -9 3 -5 15 -7 26 -4
32 8 73 -6 66 -22 -4 -11 2 -15 19 -15 13 0 27 -4 30 -10 3 -5 17 -10 30 -10
16 0 25 7 29 25 8 33 -1 47 -25 40 -21 -7 -27 10 -6 18 6 2 8 8 4 13 -4 4 -21
0 -37 -10 -17 -9 -34 -15 -38 -12 -5 3 -28 6 -53 7 -24 1 -48 5 -54 9 -5 4
-16 5 -22 3z m213 -61 c-3 -6 -16 -7 -29 -4 -22 6 -22 6 3 12 28 8 35 6 26 -8z"/>
<path d="M5150 1040 c0 -5 5 -10 10 -10 6 0 10 5 10 10 0 6 -4 10 -10 10 -5 0
-10 -4 -10 -10z"/>
<path d="M168 1033 c6 -2 18 -2 25 0 6 3 1 5 -13 5 -14 0 -19 -2 -12 -5z"/>
<path d="M3858 1033 c7 -3 16 -2 19 1 4 3 -2 6 -13 5 -11 0 -14 -3 -6 -6z"/>
<path d="M5070 1030 c-11 -7 -7 -10 18 -10 17 0 32 5 32 10 0 13 -30 13 -50 0z"/>
<path d="M9442 1020 c0 -14 2 -19 5 -12 2 6 2 18 0 25 -3 6 -5 1 -5 -13z"/>
<path d="M9500 1011 c0 -17 5 -31 10 -31 6 0 10 11 10 24 0 14 -4 28 -10 31
-6 4 -10 -7 -10 -24z"/>
<path d="M1240 1006 c0 -13 6 -27 13 -30 6 -3 2 -3 -10 -1 -12 3 -24 1 -28 -5
-10 -16 -1 -22 34 -24 26 -2 31 1 31 21 0 13 -5 23 -11 23 -6 0 -8 9 -4 20 5
14 2 20 -9 20 -10 0 -16 -9 -16 -24z"/>
<path d="M1328 1023 c7 -3 16 -2 19 1 4 3 -2 6 -13 5 -11 0 -14 -3 -6 -6z"/>
<path d="M2522 1018 c-17 -17 -15 -38 3 -38 9 0 12 6 9 15 -4 9 0 15 10 15 29
0 17 -30 -14 -36 -55 -12 -31 -21 43 -17 39 2 78 6 86 9 22 7 3 19 -35 20 -19
1 -43 8 -52 16 -28 25 -38 28 -50 16z"/>
<path d="M3011 1013 c-5 -10 -13 -17 -18 -15 -4 2 -9 -1 -11 -7 -2 -6 4 -11
14 -11 16 0 16 -1 -1 -14 -18 -13 -9 -14 74 -14 109 1 134 5 127 24 -3 8 -1
14 5 14 6 0 7 5 4 10 -9 14 -21 12 -39 -6 -10 -9 -16 -11 -16 -4 0 7 -6 5 -16
-4 -8 -9 -25 -16 -37 -15 -20 1 -20 2 3 9 20 7 14 9 -24 7 -32 -1 -51 3 -54
11 -3 9 11 12 52 10 57 -4 74 5 34 16 -44 11 -87 6 -97 -11z"/>
<path d="M3450 1021 c0 -9 -92 -27 -122 -24 -9 2 -18 -4 -21 -11 -5 -12 10
-14 76 -12 81 1 82 2 85 29 2 15 -1 27 -7 27 -6 0 -11 -4 -11 -9z"/>
<path d="M3634 1016 c-4 -10 -2 -22 4 -28 8 -8 13 -7 18 6 4 10 2 22 -4 28 -8
8 -13 7 -18 -6z"/>
<path d="M9469 1025 c-3 -5 -9 -22 -13 -37 -6 -28 10 -50 20 -24 7 19 1 74 -7
61z"/>
<path d="M116 1004 c-4 -10 -1 -21 6 -26 16 -10 31 -10 24 0 -3 6 98 7 130 1
20 -3 34 2 34 12 0 6 -9 9 -20 6 -11 -3 -20 -2 -20 2 0 5 -26 9 -57 10 -32 1
-65 4 -74 7 -10 3 -19 -2 -23 -12z"/>
<path d="M4892 1000 c-7 -12 -16 -18 -21 -16 -4 3 -6 -7 -3 -22 5 -24 4 -26
-12 -13 -9 8 -14 16 -12 18 3 3 -4 14 -14 26 -11 11 -23 17 -27 13 -5 -4 0
-13 10 -20 17 -13 23 -36 9 -36 -4 0 -13 5 -20 12 -9 9 -12 6 -12 -15 0 -27
13 -36 25 -17 4 6 11 8 16 4 19 -12 69 7 69 26 0 10 5 22 10 25 12 7 14 35 2
35 -4 0 -13 -9 -20 -20z"/>
<path d="M1930 1000 c0 -5 5 -10 10 -10 6 0 10 5 10 10 0 6 -4 10 -10 10 -5 0
-10 -4 -10 -10z"/>
<path d="M2276 993 c-3 -10 -9 -24 -12 -30 -4 -8 2 -13 15 -13 18 0 21 5 17
26 -7 34 -12 39 -20 17z"/>
<path d="M4240 1000 c0 -5 7 -10 16 -10 8 0 12 5 9 10 -3 6 -10 10 -16 10 -5
0 -9 -4 -9 -10z"/>
<path d="M4480 1000 c0 -5 6 -10 13 -10 6 0 3 -6 -7 -12 -29 -16 -78 -12 -94
9 -12 16 -13 15 -10 -12 2 -21 8 -30 21 -29 16 2 31 -28 26 -52 -4 -21 2 -34
15 -34 21 0 30 18 17 34 -6 7 -8 16 -4 19 3 4 -2 9 -11 13 -25 10 -19 19 22
34 54 21 94 20 89 -1 -4 -15 -1 -16 19 -7 34 16 30 26 -13 33 -21 3 -46 10
-55 16 -22 12 -28 11 -28 -1z"/>
<path d="M1853 985 c2 -5 14 -10 27 -10 13 0 25 5 27 10 2 6 -10 10 -27 10
-16 0 -28 -4 -27 -10z"/>
<path d="M2095 990 c-3 -5 1 -10 10 -10 9 0 13 5 10 10 -3 6 -8 10 -10 10 -2
0 -7 -4 -10 -10z"/>
<path d="M2205 990 c3 -5 8 -10 11 -10 2 0 4 5 4 10 0 6 -5 10 -11 10 -5 0 -7
-4 -4 -10z"/>
<path d="M2440 990 c-21 -7 -20 -8 12 -7 21 1 38 5 38 10 0 9 -17 8 -50 -3z"/>
<path d="M4309 988 c7 -10 17 -16 21 -13 5 3 10 -1 13 -7 2 -8 8 -9 13 -4 5 5
4 11 -4 13 -6 3 -10 9 -6 14 3 5 0 9 -5 9 -6 0 -11 -5 -11 -11 0 -8 -6 -7 -17
2 -16 13 -17 12 -4 -3z"/>
<path d="M480 979 c0 -5 -13 -9 -30 -9 -16 0 -30 -4 -30 -9 0 -4 38 -8 85 -8
47 0 85 4 85 9 0 4 -15 8 -33 8 -19 0 -37 3 -41 7 -10 11 -36 12 -36 2z"/>
<path d="M2850 986 c0 -2 7 -7 16 -10 8 -3 12 -2 9 4 -6 10 -25 14 -25 6z"/>
<path d="M2908 976 c-16 -11 -14 -14 20 -24 29 -9 34 -9 21 1 -9 7 -14 18 -12
25 6 16 -7 15 -29 -2z"/>
<path d="M3564 981 c3 -5 14 -11 25 -14 14 -3 18 -1 14 9 -3 8 -14 14 -25 14
-10 0 -17 -4 -14 -9z"/>
<path d="M3718 983 c7 -3 16 -2 19 1 4 3 -2 6 -13 5 -11 0 -14 -3 -6 -6z"/>
<path d="M4210 982 c0 -11 41 -34 48 -28 3 4 -3 13 -14 21 -21 16 -34 19 -34
7z"/>
<path d="M18 973 c-33 -8 -18 -23 22 -21 22 1 40 5 40 10 0 4 -4 8 -9 8 -5 0
-15 2 -23 4 -7 2 -21 2 -30 -1z"/>
<path d="M90 964 c0 -8 5 -12 10 -9 6 4 8 11 5 16 -9 14 -15 11 -15 -7z"/>
<path d="M1648 973 c6 -2 18 -2 25 0 6 3 1 5 -13 5 -14 0 -19 -2 -12 -5z"/>
<path d="M2034 969 c-3 -6 -1 -16 5 -22 8 -8 11 -5 11 11 0 24 -5 28 -16 11z"/>
<path d="M2060 971 c0 -6 5 -13 10 -16 6 -3 10 1 10 9 0 9 -4 16 -10 16 -5 0
-10 -4 -10 -9z"/>
<path d="M4731 978 c-2 -14 19 -58 28 -58 5 0 11 13 13 29 4 26 2 28 -13 20
-12 -6 -19 -5 -22 4 -3 6 -6 9 -6 5z"/>
<path d="M1590 960 c0 -5 5 -10 10 -10 6 0 10 5 10 10 0 6 -4 10 -10 10 -5 0
-10 -4 -10 -10z"/>
<path d="M1915 960 c-3 -5 3 -10 15 -10 12 0 18 5 15 10 -3 6 -10 10 -15 10
-5 0 -12 -4 -15 -10z"/>
<path d="M2450 960 c-12 -8 -11 -10 8 -10 12 0 22 5 22 10 0 13 -11 13 -30 0z"/>
<path d="M4290 960 c-13 -8 -12 -10 3 -10 9 0 17 5 17 10 0 12 -1 12 -20 0z"/>
<path d="M4517 963 c-4 -3 -7 -16 -6 -27 0 -19 1 -19 10 3 10 24 8 36 -4 24z"/>
<path d="M4680 960 c0 -5 9 -10 20 -10 11 0 20 5 20 10 0 6 -9 10 -20 10 -11
0 -20 -4 -20 -10z"/>
<path d="M9206 954 c-4 -12 0 -33 9 -50 8 -16 15 -27 16 -24 6 24 5 89 -1 80
-6 -9 -9 -9 -12 1 -3 10 -7 7 -12 -7z m24 -39 c0 -5 -5 -3 -10 5 -5 8 -10 20
-10 25 0 6 5 3 10 -5 5 -8 10 -19 10 -25z"/>
<path d="M9540 960 c0 -5 7 -10 15 -10 8 0 15 5 15 10 0 6 -7 10 -15 10 -8 0
-15 -4 -15 -10z"/>
<path d="M3685 950 c3 -5 12 -7 20 -3 21 7 19 13 -6 13 -11 0 -18 -4 -14 -10z"/>
<path d="M280 940 c0 -5 5 -10 10 -10 6 0 10 5 10 10 0 6 -4 10 -10 10 -5 0
-10 -4 -10 -10z"/>
<path d="M3520 940 c0 -5 5 -10 11 -10 5 0 7 5 4 10 -3 6 -8 10 -11 10 -2 0
-4 -4 -4 -10z"/>
<path d="M70 930 c-56 -15 -70 -23 -70 -40 0 -14 10 -17 65 -18 61 -1 84 9 50
22 -8 3 -12 12 -9 20 7 18 -5 24 -36 16z m3 -37 c-7 -2 -21 -2 -30 0 -10 3 -4
5 12 5 17 0 24 -2 18 -5z"/>
<path d="M3410 936 c0 -2 7 -6 15 -10 8 -3 15 -1 15 4 0 6 -7 10 -15 10 -8 0
-15 -2 -15 -4z"/>
<path d="M4042 928 c5 -15 48 -18 48 -3 0 6 -11 11 -26 13 -18 3 -25 0 -22
-10z"/>
<path d="M5078 933 c7 -3 16 -2 19 1 4 3 -2 6 -13 5 -11 0 -14 -3 -6 -6z"/>
<path d="M480 920 c0 -5 4 -10 9 -10 6 0 13 5 16 10 3 6 -1 10 -9 10 -9 0 -16
-4 -16 -10z"/>
<path d="M590 905 c0 -14 0 -28 -1 -32 0 -4 4 -9 9 -11 15 -5 20 43 5 56 -11
10 -13 8 -13 -13z"/>
<path d="M1559 911 c-19 -16 -22 -22 -11 -32 10 -11 12 -11 12 0 0 12 13 10
58 -6 16 -6 16 29 0 45 -17 17 -32 15 -59 -7z"/>
<path d="M2840 920 c0 -5 16 -10 35 -10 19 0 35 5 35 10 0 6 -16 10 -35 10
-19 0 -35 -4 -35 -10z"/>
<path d="M3008 923 c7 -3 16 -2 19 1 4 3 -2 6 -13 5 -11 0 -14 -3 -6 -6z"/>
<path d="M4560 920 c0 -5 5 -10 10 -10 6 0 10 5 10 10 0 6 -4 10 -10 10 -5 0
-10 -4 -10 -10z"/>
<path d="M9251 904 c-14 -31 -8 -42 14 -24 13 11 14 10 9 -5 -5 -13 -4 -16 4
-11 15 9 15 27 -2 48 -12 16 -14 16 -25 -8z"/>
<path d="M9310 921 c0 -5 -3 -16 -6 -24 -3 -8 2 -17 10 -20 12 -5 16 1 16 23
0 17 -4 30 -10 30 -5 0 -10 -4 -10 -9z"/>
<path d="M266 913 c-3 -4 -30 -6 -59 -6 -33 0 -39 -1 -17 -4 19 -2 55 -10 80
-18 25 -7 73 -16 108 -19 52 -5 62 -3 62 10 0 10 -8 15 -22 13 -13 -1 -39 1
-58 5 -19 4 -39 7 -45 8 -5 0 -17 4 -26 9 -9 4 -19 5 -23 2z"/>
<path d="M425 910 c3 -5 8 -10 11 -10 2 0 4 5 4 10 0 6 -5 10 -11 10 -5 0 -7
-4 -4 -10z"/>
<path d="M1052 899 c-7 -10 -12 -21 -12 -23 0 -2 32 -4 71 -4 l71 1 -24 21
c-31 28 -90 31 -106 5z"/>
<path d="M1281 888 c-1 -25 4 -38 12 -38 21 0 37 22 36 50 0 14 -3 19 -6 13
-2 -7 -11 -13 -18 -13 -7 0 -16 6 -18 13 -3 6 -6 -5 -6 -25z"/>
<path d="M1415 910 c-3 -5 -1 -10 4 -10 6 0 11 5 11 10 0 6 -2 10 -4 10 -3 0
-8 -4 -11 -10z"/>
<path d="M2025 906 c-8 -11 -21 -13 -57 -7 -26 4 -53 4 -60 0 -16 -10 -18 -10
57 -13 57 -3 85 5 85 25 0 14 -14 11 -25 -5z"/>
<path d="M2640 910 c0 -5 5 -10 11 -10 5 0 7 5 4 10 -3 6 -8 10 -11 10 -2 0
-4 -4 -4 -10z"/>
<path d="M2710 910 c0 -5 -8 -11 -17 -13 -15 -4 -15 -5 2 -6 11 0 26 3 33 8
11 7 11 9 -2 14 -9 4 -16 2 -16 -3z"/>
<path d="M4117 905 c3 -9 -2 -24 -11 -34 -29 -32 -1 -32 29 -1 23 24 25 30 12
30 -9 0 -17 5 -17 10 0 6 -4 10 -10 10 -5 0 -7 -7 -3 -15z"/>
<path d="M4607 898 c-6 -22 6 -38 30 -38 22 0 21 15 -2 38 l-23 22 -5 -22z"/>
<path d="M1188 903 c6 -2 12 -12 12 -21 0 -14 2 -15 9 -2 12 18 5 30 -17 29
-11 0 -12 -3 -4 -6z"/>
<path d="M1358 903 c7 -3 16 -2 19 1 4 3 -2 6 -13 5 -11 0 -14 -3 -6 -6z"/>
<path d="M2913 897 c-38 -19 -26 -30 25 -22 26 4 49 9 51 11 16 15 -49 24 -76
11z"/>
<path d="M3133 897 c-24 -5 -43 -13 -43 -17 0 -11 98 -11 105 0 3 6 0 11 -7
11 -7 1 5 5 27 9 l40 7 -40 0 c-22 1 -59 -4 -82 -10z"/>
<path d="M3418 903 c6 -2 18 -2 25 0 6 3 1 5 -13 5 -14 0 -19 -2 -12 -5z"/>
<path d="M4484 885 c1 -33 16 -33 16 0 0 14 -4 25 -9 25 -5 0 -8 -11 -7 -25z"/>
<path d="M4525 888 c2 -23 19 -35 29 -19 9 13 -4 41 -18 41 -7 0 -12 -10 -11
-22z"/>
<path d="M4946 895 c4 -8 7 -15 9 -15 2 0 5 7 9 15 3 9 0 15 -9 15 -9 0 -12
-6 -9 -15z"/>
<path d="M5040 890 c0 -11 2 -20 4 -20 2 0 6 9 9 20 3 11 1 20 -4 20 -5 0 -9
-9 -9 -20z"/>
<path d="M920 892 c0 -4 5 -13 12 -20 18 -18 28 -15 28 8 0 13 -7 20 -20 20
-11 0 -20 -4 -20 -8z"/>
<path d="M2261 879 c-13 -11 -22 -21 -20 -22 2 -1 13 -10 24 -19 19 -16 20
-15 20 23 0 21 0 39 0 39 0 -1 -11 -10 -24 -21z"/>
<path d="M2355 878 c30 -23 54 -25 68 -5 5 9 9 9 15 0 5 -8 13 -9 22 -3 20 13
60 13 60 0 0 -5 9 -10 20 -10 11 0 20 6 20 14 0 13 -65 22 -190 26 l-44 1 29
-23z"/>
<path d="M2597 894 c-16 -16 -5 -24 31 -24 21 0 42 -4 48 -9 5 -5 27 -11 49
-13 25 -2 39 -8 38 -15 -4 -19 28 -16 43 5 25 32 16 37 -57 34 -44 -2 -74 0
-78 7 -9 14 -64 25 -74 15z"/>
<path d="M3050 885 c0 -9 5 -15 11 -13 6 2 11 8 11 13 0 5 -5 11 -11 13 -6 2
-11 -4 -11 -13z"/>
<path d="M3280 889 c0 -5 5 -7 10 -4 6 3 10 8 10 11 0 2 -4 4 -10 4 -5 0 -10
-5 -10 -11z"/>
<path d="M4182 893 c-20 -8 -3 -23 27 -23 15 0 32 -5 39 -12 9 -9 15 -9 23 -1
6 6 17 10 23 7 6 -2 22 5 36 16 l25 20 -32 0 c-18 0 -33 -5 -33 -11 0 -8 -5
-7 -16 2 -13 10 -17 10 -25 -2 -6 -10 -9 -10 -9 -1 0 12 -33 15 -58 5z"/>
<path d="M4370 896 c0 -2 7 -9 15 -16 12 -10 15 -10 15 4 0 9 -7 16 -15 16 -8
0 -15 -2 -15 -4z"/>
<path d="M4576 891 c-4 -7 -5 -15 -2 -18 9 -9 19 4 14 18 -4 11 -6 11 -12 0z"/>
<path d="M5005 890 c3 -5 10 -10 16 -10 5 0 9 5 9 10 0 6 -7 10 -16 10 -8 0
-12 -4 -9 -10z"/>
<path d="M160 880 c0 -12 17 -12 45 0 17 7 15 9 -12 9 -18 1 -33 -3 -33 -9z"/>
<path d="M1475 880 c3 -5 16 -10 28 -10 18 0 19 2 7 10 -20 13 -43 13 -35 0z"/>
<path d="M1660 879 c0 -5 5 -7 10 -4 6 3 10 8 10 11 0 2 -4 4 -10 4 -5 0 -10
-5 -10 -11z"/>
<path d="M2830 880 c0 -5 11 -10 25 -10 14 0 25 5 25 10 0 6 -11 10 -25 10
-14 0 -25 -4 -25 -10z"/>
<path d="M3686 881 c-3 -4 6 -6 19 -3 14 2 25 6 25 8 0 8 -39 4 -44 -5z"/>
<path d="M3770 880 c20 -13 60 -13 60 0 0 6 -17 10 -37 10 -28 0 -34 -3 -23
-10z"/>
<path d="M3870 881 c-24 -7 -23 -8 10 -13 43 -7 69 0 48 13 -15 10 -23 10 -58
0z"/>
<path d="M4057 883 c-12 -11 -8 -23 8 -23 8 0 15 7 15 15 0 16 -12 20 -23 8z"/>
<path d="M4970 860 c0 -16 5 -30 10 -30 6 0 10 14 10 30 0 17 -4 30 -10 30 -5
0 -10 -13 -10 -30z"/>
<path d="M1413 868 c15 -5 27 -16 27 -24 0 -9 4 -13 9 -10 5 3 7 15 4 26 -4
15 -13 20 -37 19 l-31 -1 28 -10z"/>
<path d="M1803 872 c-29 -2 -43 -8 -43 -18 0 -17 85 -20 96 -3 10 17 -8 24
-53 21z"/>
<path d="M240 860 c0 -5 4 -10 9 -10 6 0 13 5 16 10 3 6 -1 10 -9 10 -9 0 -16
-4 -16 -10z"/>
<path d="M2060 860 c0 -5 5 -10 10 -10 6 0 10 5 10 10 0 6 -4 10 -10 10 -5 0
-10 -4 -10 -10z"/>
<path d="M1360 846 c0 -9 8 -12 27 -8 25 5 25 6 8 13 -29 11 -35 10 -35 -5z"/>
<path d="M9251 844 c0 -11 3 -14 6 -6 3 7 2 16 -1 19 -3 4 -6 -2 -5 -13z"/>
<path d="M9401 844 c0 -11 3 -14 6 -6 3 7 2 16 -1 19 -3 4 -6 -2 -5 -13z"/>
<path d="M2898 843 c-10 -2 -18 -8 -18 -13 0 -12 29 -20 35 -10 4 6 22 10 41
10 19 0 34 5 34 10 0 10 -59 12 -92 3z"/>
<path d="M3968 843 c6 -2 18 -2 25 0 6 3 1 5 -13 5 -14 0 -19 -2 -12 -5z"/>
<path d="M4830 841 c0 -6 5 -13 10 -16 6 -3 10 1 10 9 0 9 -4 16 -10 16 -5 0
-10 -4 -10 -9z"/>
<path d="M65 830 c3 -5 8 -10 11 -10 2 0 4 5 4 10 0 6 -5 10 -11 10 -5 0 -7
-4 -4 -10z"/>
<path d="M1540 816 c0 -17 5 -26 16 -26 10 0 14 7 12 22 -5 32 -28 35 -28 4z"/>
<path d="M3020 832 c0 -5 7 -15 15 -22 8 -7 15 -8 15 -2 0 5 -7 15 -15 22 -8
7 -15 8 -15 2z"/>
<path d="M3706 831 c-4 -6 -23 -11 -42 -11 -19 0 -34 -4 -34 -10 0 -13 70 -13
90 0 11 7 12 12 4 20 -9 9 -14 9 -18 1z"/>
<path d="M4020 830 c0 -5 15 -10 33 -9 27 0 29 2 12 9 -28 12 -45 12 -45 0z"/>
<path d="M4555 830 c3 -5 8 -10 11 -10 2 0 4 5 4 10 0 6 -5 10 -11 10 -5 0 -7
-4 -4 -10z"/>
<path d="M2358 823 c7 -3 16 -2 19 1 4 3 -2 6 -13 5 -11 0 -14 -3 -6 -6z"/>
<path d="M285 810 c4 -6 11 -8 16 -5 14 9 11 15 -7 15 -8 0 -12 -5 -9 -10z"/>
<path d="M320 810 c0 -5 9 -10 21 -10 11 0 17 5 14 10 -3 6 -13 10 -21 10 -8
0 -14 -4 -14 -10z"/>
<path d="M1060 811 c0 -11 26 -22 34 -14 12 12 5 23 -14 23 -11 0 -20 -4 -20
-9z"/>
<path d="M1208 813 c6 -2 18 -2 25 0 6 3 1 5 -13 5 -14 0 -19 -2 -12 -5z"/>
<path d="M1505 810 c3 -5 8 -10 11 -10 2 0 4 5 4 10 0 6 -5 10 -11 10 -5 0 -7
-4 -4 -10z"/>
<path d="M1610 810 c0 -5 4 -10 9 -10 6 0 13 5 16 10 3 6 -1 10 -9 10 -9 0
-16 -4 -16 -10z"/>
<path d="M5058 813 c-21 -5 -24 -23 -4 -23 22 0 46 11 46 21 0 9 -13 10 -42 2z"/>
<path d="M9340 810 c0 -5 5 -10 10 -10 6 0 10 5 10 10 0 6 -4 10 -10 10 -5 0
-10 -4 -10 -10z"/>
<path d="M3360 790 c0 -5 5 -10 10 -10 6 0 10 5 10 10 0 6 -4 10 -10 10 -5 0
-10 -4 -10 -10z"/>
<path d="M815 780 c-4 -6 7 -10 25 -10 18 0 29 4 25 10 -3 6 -15 10 -25 10
-10 0 -22 -4 -25 -10z"/>
<path d="M1300 780 c0 -5 7 -10 15 -10 8 0 15 5 15 10 0 6 -7 10 -15 10 -8 0
-15 -4 -15 -10z"/>
<path d="M9120 756 c0 -2 7 -9 15 -16 9 -7 15 -8 15 -2 0 5 -7 12 -15 16 -8 3
-15 4 -15 2z"/>
</g>
</svg>
