<?xml version="1.0" standalone="no"?>
<!DOCTYPE svg PUBLIC "-//W3C//DTD SVG 20010904//EN"
 "http://www.w3.org/TR/2001/REC-SVG-20010904/DTD/svg10.dtd">
<svg version="1.0" xmlns="http://www.w3.org/2000/svg"
 width="614.000000pt" height="575.000000pt" viewBox="0 0 614.000000 575.000000"
 preserveAspectRatio="xMidYMid meet">

<g transform="translate(0.000000,575.000000) scale(0.100000,-0.100000)"
fill="#000000" stroke="none">
<path d="M2505 5613 c-278 -14 -570 -95 -835 -231 -166 -85 -236 -130 -392
-253 -54 -42 -230 -218 -368 -368 -58 -63 -141 -153 -186 -200 -186 -198 -238
-271 -347 -486 -194 -382 -277 -952 -212 -1451 40 -305 106 -529 228 -784 48
-99 170 -315 187 -330 3 -3 18 -25 35 -50 81 -122 254 -331 369 -445 317 -314
654 -529 1026 -656 350 -120 776 -187 1120 -176 416 14 732 98 1057 282 171
97 402 305 754 680 90 96 242 289 323 410 126 188 232 422 279 615 59 240 61
262 62 605 0 305 -2 327 -28 480 -16 88 -37 194 -47 235 -44 175 -129 401
-196 525 -14 28 -36 68 -47 90 -51 96 -218 335 -305 434 -60 69 -253 264 -312
316 -382 333 -828 564 -1310 678 -334 80 -523 97 -855 80z m565 -68 c156 -25
268 -51 485 -111 221 -62 559 -224 763 -364 70 -49 132 -92 137 -97 6 -5 31
-25 57 -44 163 -124 328 -283 457 -439 34 -41 69 -84 78 -94 31 -38 141 -202
184 -276 309 -530 416 -1251 278 -1886 -77 -355 -318 -761 -634 -1064 -115
-111 -148 -139 -241 -206 -286 -202 -514 -285 -939 -340 -222 -29 -595 -9
-865 46 -58 12 -125 26 -150 31 -25 5 -67 16 -95 24 -27 8 -90 26 -140 41
-140 40 -451 180 -543 243 -15 10 -63 42 -107 72 -44 29 -109 76 -145 104 -36
27 -74 57 -84 65 -11 8 -75 69 -144 135 -129 124 -243 253 -326 365 -26 36
-54 73 -62 83 -9 11 -31 47 -51 80 -58 103 -81 142 -90 152 -29 35 -149 293
-192 413 -95 267 -149 624 -137 917 25 614 156 1004 470 1405 11 14 81 86 156
160 123 122 273 242 370 296 19 10 37 21 40 24 10 11 148 80 231 115 211 91
425 144 659 165 140 12 462 3 580 -15z m-1404 -4458 c33 -23 80 -56 106 -72
52 -33 55 -38 32 -57 -8 -7 -24 -21 -35 -30 -10 -10 -22 -18 -25 -18 -10 0
-144 -104 -144 -111 0 -4 -11 -10 -25 -13 -14 -4 -25 -11 -25 -16 0 -6 -7 -10
-15 -10 -9 0 -18 -7 -21 -15 -4 -8 -12 -15 -20 -15 -8 0 -14 -4 -14 -10 0 -26
-73 5 -126 53 -7 7 -31 25 -53 41 -23 17 -41 35 -41 42 0 15 59 72 131 125 29
22 63 48 74 57 27 23 128 91 136 91 4 1 33 -18 65 -42z m565 -318 c27 -12 49
-24 49 -28 0 -6 -60 -49 -276 -195 l-117 -78 -33 16 c-19 8 -34 19 -34 23 0
15 45 59 110 108 36 28 70 55 75 61 16 18 157 114 167 114 5 0 32 -10 59 -21z
m152 -58 c8 -8 -84 -76 -269 -200 -89 -59 -126 -78 -142 -74 -12 3 -22 8 -22
12 0 3 25 24 56 46 31 22 62 45 68 50 6 6 29 22 51 37 22 15 78 55 125 88 82
57 107 65 133 41z m784 -159 c16 -10 -144 -172 -271 -275 -34 -27 -38 -28
-113 -21 -43 4 -83 9 -90 13 -7 3 38 43 105 93 64 48 143 112 175 143 57 55
57 55 120 55 34 0 68 -4 74 -8z"/>
<path d="M2692 5518 c-21 -21 -14 -82 11 -106 28 -26 88 -30 111 -6 43 43 -4
124 -72 124 -21 0 -43 -5 -50 -12z m96 -14 c27 -19 27 -61 0 -78 -26 -16 -88
17 -88 47 0 46 45 62 88 31z"/>
<path d="M2020 5407 c-45 -22 -39 -97 10 -122 92 -48 163 34 91 106 -32 31
-61 36 -101 16z m94 -23 c20 -20 21 -73 1 -80 -8 -3 -31 2 -52 13 -37 18 -50
40 -39 69 7 19 70 18 90 -2z"/>
<path d="M3420 5397 c-17 -9 -26 -22 -28 -45 -5 -46 34 -82 87 -82 34 0 40 4
48 28 13 37 -1 74 -36 95 -35 20 -39 20 -71 4z m78 -27 c25 -24 28 -43 8 -59
-22 -19 -96 12 -96 40 0 38 55 50 88 19z"/>
<path d="M2502 5259 c-173 -18 -365 -76 -552 -166 -375 -181 -629 -433 -840
-834 -9 -18 -50 -122 -74 -189 -30 -83 -74 -304 -87 -430 -28 -284 -6 -614 57
-850 25 -91 119 -354 134 -375 4 -5 29 -50 54 -100 26 -49 70 -121 97 -160 27
-38 67 -95 88 -125 98 -139 262 -312 458 -482 116 -100 302 -218 459 -291 87
-41 245 -99 333 -123 95 -27 383 -82 496 -95 159 -19 426 -16 560 5 124 20
313 67 395 97 71 27 234 109 238 120 2 5 8 9 14 9 9 0 126 79 158 107 169 147
262 241 346 353 73 97 124 169 124 174 0 3 17 34 38 68 100 165 171 368 207
593 23 147 24 515 1 660 -71 451 -210 770 -480 1105 -71 88 -290 312 -347 355
-22 17 -45 35 -52 40 -39 34 -192 139 -247 171 -316 183 -612 290 -963 349
-126 21 -178 25 -340 24 -106 -1 -230 -6 -275 -10z m493 -139 c177 -26 408
-83 436 -107 9 -7 18 -10 22 -7 8 8 259 -92 320 -128 26 -15 51 -28 54 -28 11
0 236 -142 287 -181 28 -22 62 -48 76 -58 49 -38 176 -149 227 -200 21 -21 56
-60 78 -87 22 -26 45 -52 50 -58 19 -21 175 -233 175 -239 0 -6 61 -109 70
-117 9 -9 97 -213 110 -255 7 -22 16 -47 20 -55 4 -9 11 -31 15 -50 4 -19 11
-39 15 -45 10 -13 56 -289 70 -426 14 -130 0 -413 -29 -569 -19 -107 -91 -312
-141 -405 -55 -101 -73 -131 -100 -165 -15 -19 -29 -40 -31 -46 -7 -20 -151
-193 -196 -237 -24 -22 -43 -46 -43 -54 0 -7 -6 -13 -12 -13 -7 0 -34 -20 -59
-43 -61 -55 -88 -77 -124 -102 -16 -12 -52 -37 -80 -56 -66 -46 -223 -122
-305 -147 -121 -37 -399 -93 -457 -92 -5 0 28 15 72 33 44 18 102 46 128 62
82 51 239 170 297 226 34 32 77 61 114 76 80 33 136 89 180 179 20 41 36 80
36 87 0 7 22 22 48 35 147 70 254 211 303 402 33 124 33 363 0 505 -46 201
-126 419 -211 578 l-41 76 15 58 c68 264 93 602 57 763 -24 104 -46 156 -92
208 -57 65 -105 85 -223 90 -83 4 -117 0 -191 -18 -127 -33 -280 -107 -351
-172 -21 -18 -22 -18 -111 16 -215 82 -386 116 -578 115 -115 0 -303 -24 -393
-49 -42 -12 -43 -12 -205 68 -285 140 -482 203 -649 205 -53 1 -96 3 -95 3 85
72 155 128 178 141 16 10 29 21 29 25 0 4 5 8 11 8 6 0 45 20 86 45 40 25 76
45 78 45 3 0 33 13 67 29 116 55 279 102 438 126 99 15 468 19 555 5z m-1149
-521 c128 -33 258 -85 439 -176 l170 -84 113 26 c310 70 591 48 893 -71 118
-47 145 -47 187 -6 18 18 37 32 43 32 6 0 25 10 42 23 42 30 76 47 93 47 8 0
14 4 14 8 0 7 57 28 130 48 95 26 217 18 289 -20 97 -50 136 -163 135 -391 0
-171 -11 -269 -55 -476 l-31 -147 51 -106 c144 -299 210 -526 218 -756 9 -234
-27 -370 -128 -491 -49 -61 -167 -149 -198 -149 -6 0 -11 -4 -11 -9 0 -13 -57
-34 -71 -25 -7 4 -10 3 -5 -4 4 -7 -10 -13 -39 -17 -25 -4 -45 -11 -45 -15 0
-5 -12 -11 -27 -14 -16 -4 -39 -9 -53 -12 -110 -26 -277 -55 -381 -66 -136
-14 -551 -17 -724 -5 -107 8 -168 15 -335 41 -14 2 -38 4 -53 5 -16 0 -26 4
-24 9 3 4 -7 8 -21 8 -67 4 -302 78 -302 95 0 5 -10 9 -22 9 -13 0 -32 7 -42
15 -10 8 -23 12 -27 9 -5 -3 -9 2 -9 10 0 8 -5 18 -12 22 -7 4 -8 3 -4 -4 8
-14 5 -15 -19 -6 -13 6 -14 9 -3 16 9 7 7 8 -7 4 -13 -4 -30 3 -47 19 -15 14
-30 25 -33 25 -12 0 -135 132 -135 145 0 8 -4 15 -8 15 -9 0 -61 97 -66 122
-2 7 -11 31 -20 52 -40 89 -69 334 -62 516 4 95 25 261 47 355 6 28 13 63 15
79 2 16 13 60 25 99 20 67 20 72 4 107 -9 21 -18 49 -18 63 -1 14 -5 23 -8 21
-4 -2 -9 4 -12 14 -4 9 -20 55 -36 102 -17 47 -31 93 -31 103 0 9 -5 17 -12
17 -6 0 -8 3 -5 7 4 3 2 12 -3 18 -6 7 -14 32 -19 56 -6 24 -15 62 -21 84 -6
22 -20 83 -31 135 -11 52 -24 109 -30 126 -21 70 -23 180 -3 248 10 37 24 66
31 66 7 0 13 4 13 10 0 42 166 53 296 19z m-430 -176 c0 -128 16 -238 54 -373
48 -174 97 -327 142 -449 l50 -133 -17 -57 c-86 -287 -109 -696 -54 -956 44
-204 126 -360 241 -456 60 -50 164 -123 190 -132 9 -3 35 -41 57 -84 64 -122
119 -171 250 -220 52 -19 83 -41 147 -101 45 -42 88 -82 97 -89 33 -26 489
-203 523 -203 7 0 15 -4 18 -8 12 -20 -295 36 -520 94 -100 25 -293 98 -389
146 -63 32 -291 181 -336 220 -15 13 -49 42 -75 65 -101 85 -183 171 -338 354
-61 72 -190 280 -251 404 -97 199 -149 371 -186 625 -19 124 -16 438 5 600 17
126 68 332 100 404 8 17 24 54 36 81 32 74 70 148 86 166 8 8 14 19 14 23 0
13 140 205 150 206 3 0 5 -57 6 -127z m2798 -2645 c-10 -32 -51 -98 -83 -131
-34 -37 -62 -52 -192 -98 -113 -40 -291 -128 -324 -161 -20 -19 -20 -19 10
-12 17 4 62 20 100 36 103 43 120 50 121 46 1 -2 11 6 23 16 12 11 23 17 25
15 8 -8 -63 -78 -131 -128 -37 -28 -73 -54 -78 -59 -6 -5 -16 -7 -23 -4 -6 2
-12 0 -12 -6 0 -11 -104 -62 -180 -88 -81 -28 -240 -27 -295 2 -22 12 -94 50
-160 84 -66 35 -147 77 -180 94 -33 16 -61 33 -63 38 -2 4 -13 8 -24 8 -13 0
-18 5 -15 14 4 9 -19 25 -67 50 -77 38 -186 79 -186 69 0 -3 -7 0 -15 7 -8 6
-18 10 -22 7 -4 -2 -24 2 -43 9 l-35 14 50 -7 c28 -4 79 -7 115 -7 77 1 260
38 271 55 6 10 94 13 371 15 366 2 451 8 686 49 101 17 254 57 303 79 50 21
62 20 53 -6z"/>
<path d="M1679 4461 c-21 -17 -24 -29 -28 -106 -2 -48 2 -115 9 -149 40 -199
137 -525 158 -534 18 -7 33 12 73 88 19 36 42 74 51 84 10 11 18 26 18 33 0 7
4 13 8 13 4 0 15 13 24 28 21 35 153 170 204 208 22 16 45 34 52 41 7 7 26 20
42 30 17 9 30 21 30 24 0 13 -53 46 -165 102 -308 153 -418 185 -476 138z m65
-78 c3 -4 14 -8 23 -9 18 -3 130 -50 153 -65 8 -5 26 -14 40 -19 14 -6 32 -14
40 -20 8 -5 32 -19 53 -30 20 -11 37 -25 37 -30 0 -5 -18 -28 -40 -52 -22 -24
-59 -71 -83 -105 -23 -35 -45 -63 -49 -63 -12 0 -108 -139 -109 -157 0 -16
-23 35 -34 77 -3 8 -13 45 -24 81 -10 37 -22 82 -25 100 -3 19 -10 57 -16 84
-6 28 -8 60 -5 72 3 12 1 25 -5 28 -5 3 -10 31 -10 61 0 50 2 54 23 54 13 0
27 -3 31 -7z"/>
<path d="M4158 4433 c7 -3 16 -2 19 1 4 3 -2 6 -13 5 -11 0 -14 -3 -6 -6z"/>
<path d="M4100 4373 c-51 -8 -147 -47 -210 -85 -120 -73 -191 -128 -183 -142
5 -8 42 -40 83 -73 42 -33 101 -86 133 -119 61 -62 188 -246 226 -326 13 -27
28 -48 35 -48 21 0 99 327 118 497 26 228 -38 322 -202 296z m104 -47 c46 -19
57 -54 57 -181 -1 -67 -25 -232 -36 -243 -3 -3 -13 1 -22 10 -14 15 -15 25 -4
91 7 41 12 111 13 155 0 67 -4 88 -26 131 -14 28 -23 51 -20 51 2 0 20 -6 38
-14z m-90 -8 c55 -58 66 -301 18 -423 -11 -27 -25 -63 -31 -80 l-12 -29 -24
29 c-13 17 -24 34 -25 39 0 17 -211 246 -226 246 -3 0 -17 11 -32 25 l-26 24
44 38 c117 101 278 167 314 131z"/>
<path d="M2210 3371 c-61 -20 -126 -73 -165 -134 -23 -36 -16 -42 15 -14 47
42 125 86 173 97 84 18 174 -21 271 -120 28 -27 51 -48 54 -46 8 9 -51 105
-85 138 -66 65 -192 102 -263 79z"/>
<path d="M3730 3257 c-49 -26 -90 -90 -90 -141 0 -30 0 -30 38 21 20 29 54 61
75 73 83 47 233 15 330 -70 63 -55 43 -8 -22 53 -70 65 -127 87 -221 87 -51 0
-78 -6 -110 -23z"/>
<path d="M3024 3115 c-100 -22 -215 -91 -245 -147 -10 -18 -9 -19 13 -7 13 6
25 15 28 18 9 11 64 42 120 68 123 57 273 54 386 -8 69 -38 139 -84 173 -113
l24 -21 -11 22 c-18 34 -119 119 -182 152 -35 19 -84 35 -126 41 -86 12 -104
12 -180 -5z"/>
<path d="M3074 2998 c-56 -10 -94 -38 -94 -68 0 -55 57 -122 134 -158 41 -20
46 -26 46 -55 0 -17 -4 -37 -8 -43 -11 -18 -81 -34 -146 -34 -118 0 -186 41
-186 111 0 43 -6 48 -26 22 -30 -40 -13 -88 48 -142 21 -18 38 -37 38 -42 0
-4 15 -34 34 -66 19 -32 44 -88 57 -125 21 -60 22 -71 11 -113 -16 -62 -15
-86 8 -148 37 -99 123 -159 230 -161 76 -1 131 25 160 76 20 35 21 48 15 126
-3 48 -7 105 -8 127 -3 80 59 212 125 267 26 21 33 33 32 65 0 21 -3 47 -8 58
-7 17 -9 15 -21 -20 -22 -63 -48 -78 -118 -70 -32 3 -88 16 -125 28 l-67 23
-3 45 -3 45 50 23 c86 39 124 110 91 172 -25 46 -164 76 -266 57z m196 -61
c39 -19 39 -60 -1 -87 -28 -20 -35 -22 -63 -12 -18 7 -40 12 -50 12 -24 0 -76
54 -76 78 0 14 7 19 31 20 17 0 34 4 37 7 9 9 91 -4 122 -18z m-175 -407 c69
6 125 -3 125 -21 0 -5 12 -9 26 -9 14 0 34 -5 45 -10 15 -9 17 -15 9 -30 -6
-11 -11 -35 -12 -54 -1 -27 -4 -32 -20 -28 -20 5 -78 -16 -78 -29 0 -5 -7 -6
-16 -2 -8 3 -13 11 -11 17 3 8 -17 10 -65 9 -59 -2 -69 0 -64 13 3 8 2 12 -4
9 -6 -3 -10 0 -10 7 0 20 -43 118 -52 118 -4 0 -8 4 -8 9 0 5 15 6 33 2 17 -4
64 -4 102 -1z m54 -226 c19 -15 31 -35 31 -49 0 -39 17 -37 23 1 7 40 32 74
54 74 8 0 27 -7 43 -15 83 -43 78 -231 -8 -276 -39 -21 -112 -17 -163 9 -46
23 -91 82 -104 135 -11 42 4 97 32 123 33 31 54 30 92 -2z"/>
<path d="M3858 1803 c7 -3 16 -2 19 1 4 3 -2 6 -13 5 -11 0 -14 -3 -6 -6z"/>
<path d="M1430 5090 c-41 -41 -15 -112 47 -129 89 -25 139 58 72 120 -38 35
-89 39 -119 9z m113 -17 c22 -20 22 -69 0 -81 -18 -10 -66 0 -88 18 -15 12
-13 37 5 70 9 17 17 20 38 15 15 -4 35 -14 45 -22z"/>
<path d="M4109 5103 c-24 -6 -40 -48 -29 -77 18 -48 90 -75 125 -46 33 27 4
101 -46 119 -18 6 -32 10 -33 10 -1 -1 -8 -3 -17 -6z m71 -33 c25 -25 25 -34
-2 -59 l-21 -20 -32 27 c-17 15 -27 30 -22 33 5 3 8 10 7 15 -1 7 24 22 43 23
4 1 16 -8 27 -19z"/>
<path d="M1003 4608 c-22 -6 -34 -17 -42 -38 -24 -71 51 -138 124 -110 37 14
45 26 45 68 0 59 -61 97 -127 80z m71 -19 c45 -21 39 -81 -10 -93 -54 -14
-105 51 -69 88 19 19 44 20 79 5z"/>
<path d="M4725 4588 c-26 -15 -35 -28 -35 -53 1 -34 36 -66 79 -72 33 -5 41
-2 51 16 18 34 3 80 -33 102 -37 22 -36 22 -62 7z m67 -25 c41 -36 4 -99 -42
-71 -20 13 -22 17 -24 53 -2 36 35 47 66 18z"/>
<path d="M5098 3999 c-30 -17 -23 -73 13 -103 37 -31 62 -33 90 -5 53 53 -37
147 -103 108z m84 -26 c22 -20 24 -61 3 -69 -8 -4 -26 -3 -40 0 -21 5 -25 12
-25 46 0 34 3 40 22 40 12 0 30 -7 40 -17z"/>
<path d="M723 3910 c-65 -26 -62 -119 4 -147 64 -26 133 4 133 60 0 32 -32 76
-63 87 -35 12 -44 12 -74 0z m94 -32 c13 -12 23 -29 23 -37 -1 -24 -23 -48
-39 -43 -8 3 -11 0 -7 -7 5 -7 -1 -11 -13 -11 -12 0 -21 4 -21 9 0 5 -8 12
-18 15 -18 6 -24 33 -16 74 6 30 59 30 91 0z"/>
<path d="M5320 3330 c-46 -46 -6 -130 63 -130 42 0 57 15 57 58 0 24 -8 42
-29 63 -34 34 -63 37 -91 9z m83 -16 c22 -13 29 -47 13 -69 -18 -25 -61 -10
-76 26 -21 49 13 71 63 43z"/>
<path d="M695 3199 c-62 -18 -74 -81 -26 -130 47 -46 130 -36 149 18 13 38
-11 100 -41 108 -43 13 -52 13 -82 4z m71 -17 c15 -9 34 -47 34 -66 0 -20 -62
-64 -68 -48 -2 7 -8 10 -12 7 -10 -6 -32 30 -37 59 -7 38 49 71 83 48z"/>
<path d="M5320 2581 c-30 -57 9 -131 69 -131 39 0 61 23 61 64 0 51 -33 86
-80 86 -29 0 -42 -5 -50 -19z m107 -33 c18 -36 7 -58 -28 -58 -16 0 -29 5 -29
11 0 5 -4 7 -10 4 -6 -4 -7 1 -3 11 4 12 3 15 -5 10 -16 -10 -16 21 1 39 19
23 60 14 74 -17z"/>
<path d="M863 2526 c-25 -11 -33 -23 -39 -51 -4 -21 -2 -47 5 -61 12 -26 65
-54 103 -54 27 0 78 44 78 66 0 23 -25 78 -42 91 -24 20 -71 24 -105 9z m97
-26 c40 -40 16 -86 -51 -95 -33 -5 -40 -4 -29 4 8 6 12 11 8 11 -15 0 -23 4
-35 16 -15 15 -17 28 -4 20 5 -4 7 2 4 12 -12 46 69 70 107 32z"/>
<path d="M5120 1960 c-24 -24 -26 -60 -5 -100 17 -33 43 -44 85 -35 41 9 54
29 47 76 -9 71 -82 104 -127 59z m87 -8 c28 -18 35 -85 9 -95 -19 -8 -76 20
-76 38 0 8 -6 15 -12 15 -9 0 -9 3 -2 8 6 4 13 15 17 25 7 17 42 23 64 9z"/>
<path d="M1299 1845 c-14 -8 -32 -27 -38 -44 -27 -63 42 -133 113 -115 30 7
66 48 66 75 0 31 -21 65 -50 82 -34 20 -56 21 -91 2z m89 -21 c33 -23 29 -65
-7 -87 -16 -9 -35 -17 -43 -17 -18 0 -43 30 -51 60 -13 50 52 79 101 44z"/>
<path d="M4740 1430 c-11 -11 -20 -28 -21 -37 -5 -73 21 -108 80 -108 49 0 71
19 71 61 0 48 -19 82 -53 94 -42 14 -54 13 -77 -10z m88 -33 c11 -23 11 -30
-2 -49 -24 -34 -62 -34 -79 -1 -22 44 -1 86 42 81 17 -2 31 -13 39 -31z"/>
<path d="M1944 1298 c-50 -24 -57 -96 -15 -139 34 -34 77 -38 122 -12 25 15
29 23 29 61 0 77 -69 123 -136 90z m96 -28 c11 -11 20 -28 20 -37 -1 -22 -23
-53 -39 -53 -7 0 -9 -5 -5 -12 5 -8 2 -9 -10 -5 -10 4 -25 7 -34 8 -12 0 -13
2 -4 6 10 4 8 9 -7 20 -23 16 -28 62 -9 81 19 19 66 14 88 -8z"/>
<path d="M4200 1053 c-36 -46 -16 -114 39 -134 84 -32 144 72 80 140 -30 32
-91 29 -119 -6z m100 -3 c38 -38 16 -100 -34 -100 -54 0 -78 59 -41 100 23 25
50 25 75 0z"/>
<path d="M2723 983 c-30 -6 -63 -49 -63 -82 0 -40 34 -87 67 -94 68 -13 113
23 113 90 0 54 -58 97 -117 86z m52 -25 c31 -14 42 -51 25 -84 -18 -32 -84
-35 -100 -3 -21 38 1 83 47 98 1 1 14 -4 28 -11z"/>
<path d="M3497 880 c-53 -42 -38 -128 27 -150 70 -23 129 35 106 105 -21 63
-83 84 -133 45z m97 -16 c9 -8 16 -31 16 -49 0 -31 -3 -35 -35 -41 -21 -4 -41
-2 -49 5 -7 6 -17 7 -21 3 -5 -4 -5 -2 -1 5 3 6 2 14 -4 18 -15 9 -12 41 6 59
8 9 28 16 44 16 16 0 36 -7 44 -16z"/>
</g>
</svg>
